<svg width="100" height="100" viewBox="0 0 100 100" fill="none" xmlns="http://www.w3.org/2000/svg">
<path d="M81.25 6.25H65.6248L65.6209 6.2502C64.1941 4.35391 61.9256 3.125 59.375 3.125H55.3926C54.2902 1.21914 52.2424 0 50 0C47.7576 0 45.7098 1.21914 44.6074 3.125H40.625C38.0744 3.125 35.8059 4.35391 34.3791 6.2502L34.375 6.25H18.75C14.4422 6.25 10.9375 9.75469 10.9375 14.0625V92.1875C10.9375 96.4953 14.4422 100 18.75 100H81.25C85.5578 100 89.0625 96.4953 89.0625 92.1875V14.0625C89.0625 9.75469 85.5578 6.25 81.25 6.25ZM35.9375 10.9375C35.9375 8.35293 38.0404 6.25 40.625 6.25H45.5996C46.2607 6.25 46.8504 5.83379 47.0719 5.21094C47.5152 3.96328 48.692 3.125 50 3.125C51.308 3.125 52.4848 3.96328 52.9281 5.21094C53.1496 5.83379 53.7393 6.25 54.4004 6.25H59.375C61.9596 6.25 64.0625 8.35293 64.0625 10.9375V15.625H35.9375V10.9375ZM85.9375 92.1875C85.9375 94.7721 83.8346 96.875 81.25 96.875H18.75C16.1654 96.875 14.0625 94.7721 14.0625 92.1875V14.0625C14.0625 11.4779 16.1654 9.375 18.75 9.375H32.9697C32.8668 9.88008 32.8125 10.4025 32.8125 10.9375V17.1875C32.8125 18.0504 33.5121 18.75 34.375 18.75H65.625C66.4879 18.75 67.1875 18.0504 67.1875 17.1875V10.9375C67.1875 10.4025 67.1332 9.88008 67.0303 9.375H81.25C83.8346 9.375 85.9375 11.4779 85.9375 14.0625V92.1875Z" fill="#353535"/>
<path d="M81.25 12.5H71.875C71.0121 12.5 70.3125 13.1996 70.3125 14.0625C70.3125 14.9254 71.0121 15.625 71.875 15.625H79.6875V70.3125H64.0625C61.4779 70.3125 59.375 72.4154 59.375 75V84.3748C59.375 85.2377 60.0746 85.9373 60.9375 85.9373C61.8004 85.9373 62.5 85.2377 62.5 84.3748V75C62.5 74.1385 63.201 73.4375 64.0625 73.4375H77.4777L60.2902 90.625H20.3125V15.625H28.125C28.9879 15.625 29.6875 14.9254 29.6875 14.0625C29.6875 13.1996 28.9879 12.5 28.125 12.5H18.75C17.8871 12.5 17.1875 13.1996 17.1875 14.0625V92.1875C17.1875 93.0504 17.8871 93.75 18.75 93.75H60.9377L60.9426 93.7498C60.9922 93.7496 61.0418 93.7473 61.0914 93.7424C61.1166 93.7398 61.1412 93.7354 61.166 93.7316C61.1914 93.7279 61.217 93.725 61.2422 93.7201C61.2711 93.7144 61.299 93.7066 61.3273 93.6992C61.3482 93.6939 61.3693 93.6895 61.3898 93.6832C61.4184 93.6746 61.4457 93.6641 61.4734 93.6539C61.4935 93.6465 61.5139 93.64 61.5338 93.6318C61.5607 93.6207 61.5865 93.6078 61.6125 93.5953C61.6324 93.5857 61.6525 93.5771 61.6721 93.5666C61.699 93.5523 61.7246 93.5361 61.7504 93.5203C61.768 93.5096 61.7857 93.4998 61.8029 93.4885C61.8342 93.4676 61.8641 93.4447 61.8936 93.4219C61.9041 93.4137 61.9152 93.4064 61.9258 93.3979C61.9678 93.3637 62.0078 93.3273 62.0459 93.2889L82.3545 72.9803C82.3568 72.9779 82.3586 72.9752 82.3609 72.9727C82.4068 72.9262 82.4486 72.8762 82.4885 72.8244C82.4992 72.8103 82.51 72.7963 82.5201 72.782C82.559 72.7275 82.5953 72.6713 82.6271 72.6119C82.6305 72.6059 82.633 72.5994 82.6361 72.5932C82.6648 72.5379 82.6896 72.4805 82.7117 72.4217C82.7168 72.408 82.7221 72.3945 82.7268 72.3807C82.7488 72.3162 82.7678 72.2504 82.7814 72.1824C82.7822 72.1787 82.7824 72.1748 82.7832 72.1711C82.7949 72.1096 82.8023 72.0467 82.8066 71.9828C82.808 71.9641 82.8088 71.9455 82.8096 71.9268C82.8102 71.9094 82.8121 71.8926 82.8121 71.875V14.0625C82.8125 13.1996 82.1129 12.5 81.25 12.5Z" fill="#353535"/>
<path d="M50 6.25C49.5879 6.25 49.1855 6.41602 48.8945 6.70703C48.6035 6.99805 48.4375 7.40039 48.4375 7.8125C48.4375 8.22461 48.6035 8.62695 48.8945 8.91797C49.1855 9.20898 49.5879 9.375 50 9.375C50.4102 9.375 50.8145 9.20898 51.1055 8.91797C51.3965 8.62695 51.5625 8.22461 51.5625 7.8125C51.5625 7.40039 51.3965 6.99805 51.1055 6.70703C50.8145 6.41602 50.4102 6.25 50 6.25Z" fill="#353535"/>
<path d="M56.25 29.6875H71.875C72.7379 29.6875 73.4375 28.9879 73.4375 28.125C73.4375 27.2621 72.7379 26.5625 71.875 26.5625H56.25C55.3871 26.5625 54.6875 27.2621 54.6875 28.125C54.6875 28.9879 55.3871 29.6875 56.25 29.6875Z" fill="#353535"/>
<path d="M43.75 35.9375H71.875C72.7379 35.9375 73.4375 35.2379 73.4375 34.375C73.4375 33.5121 72.7379 32.8125 71.875 32.8125H43.75C42.8871 32.8125 42.1875 33.5121 42.1875 34.375C42.1875 35.2379 42.8871 35.9375 43.75 35.9375Z" fill="#353535"/>
<path d="M71.875 45.3125H28.125C27.2621 45.3125 26.5625 46.0121 26.5625 46.875C26.5625 47.7379 27.2621 48.4375 28.125 48.4375H71.875C72.7379 48.4375 73.4375 47.7379 73.4375 46.875C73.4375 46.0121 72.7379 45.3125 71.875 45.3125Z" fill="#353535"/>
<path d="M71.875 51.5625H28.125C27.2621 51.5625 26.5625 52.2621 26.5625 53.125C26.5625 53.9879 27.2621 54.6875 28.125 54.6875H71.875C72.7379 54.6875 73.4375 53.9879 73.4375 53.125C73.4375 52.2621 72.7379 51.5625 71.875 51.5625Z" fill="#353535"/>
<path d="M71.875 57.8125H28.125C27.2621 57.8125 26.5625 58.5121 26.5625 59.375C26.5625 60.2379 27.2621 60.9375 28.125 60.9375H71.875C72.7379 60.9375 73.4375 60.2379 73.4375 59.375C73.4375 58.5121 72.7379 57.8125 71.875 57.8125Z" fill="#353535"/>
<path d="M73.4375 65.625C73.4375 64.7621 72.7379 64.0625 71.875 64.0625H28.125C27.2621 64.0625 26.5625 64.7621 26.5625 65.625C26.5625 66.4879 27.2621 67.1875 28.125 67.1875H71.875C72.7379 67.1875 73.4375 66.4879 73.4375 65.625Z" fill="#353535"/>
<path d="M54.6875 70.3125H42.1875C41.3246 70.3125 40.625 71.0121 40.625 71.875C40.625 72.7379 41.3246 73.4375 42.1875 73.4375H54.6875C55.5504 73.4375 56.25 72.7379 56.25 71.875C56.25 71.0121 55.5504 70.3125 54.6875 70.3125Z" fill="#353535"/>
<path d="M54.6875 76.5625H42.1875C41.3246 76.5625 40.625 77.2621 40.625 78.125C40.625 78.9879 41.3246 79.6875 42.1875 79.6875H54.6875C55.5504 79.6875 56.25 78.9879 56.25 78.125C56.25 77.2621 55.5504 76.5625 54.6875 76.5625Z" fill="#353535"/>
<path d="M26.5625 28.125C26.5625 28.9879 27.2621 29.6875 28.125 29.6875H35.9375C36.8004 29.6875 37.5 28.9879 37.5 28.125C37.5 27.2621 36.8004 26.5625 35.9375 26.5625H28.125C27.2621 26.5625 26.5625 27.2621 26.5625 28.125Z" fill="#353535"/>
<path d="M23.4375 77.3438C23.4375 81.2209 26.5916 84.375 30.4688 84.375C34.3459 84.375 37.5 81.2209 37.5 77.3438C37.5 73.4666 34.3459 70.3125 30.4688 70.3125C26.5916 70.3125 23.4375 73.4666 23.4375 77.3438ZM34.375 77.3438C34.375 79.4977 32.6227 81.25 30.4688 81.25C28.3148 81.25 26.5625 79.4977 26.5625 77.3438C26.5625 75.1898 28.3148 73.4375 30.4688 73.4375C32.6227 73.4375 34.375 75.1898 34.375 77.3438Z" fill="#353535"/>
<path d="M29.2442 80.9446C27.3046 80.2227 26.259 78.1396 26.8487 76.1716C27.088 75.3727 28.0521 74.2934 28.8876 73.889C31.3384 72.7025 34.2739 74.6538 34.2598 77.4598C34.2558 78.2564 33.7973 79.3528 33.2076 79.9754C32.2665 80.9691 30.4823 81.4054 29.2442 80.9446Z" fill="#2F524E" stroke="#353535" stroke-width="0.155039"/>
<path d="M35.998 12.752C36.0654 9.49723 36.2483 8.84455 37.4121 7.70529C38.6368 6.50648 39.1493 6.37529 42.9688 6.28282C46.6726 6.19316 46.772 6.16582 47.2173 5.11467C47.6483 4.09724 48.9637 3.18512 50 3.18512C51.0363 3.18512 52.3518 4.09724 52.7828 5.11467C53.2281 6.16582 53.3275 6.19316 57.0312 6.28282C60.8508 6.37529 61.3632 6.50648 62.5879 7.70529C63.7518 8.84455 63.9347 9.49723 64.002 12.752L64.0606 15.5814H50H35.9395L35.998 12.752ZM51.0862 9.03078C51.6222 8.56981 51.7801 7.54208 51.4033 6.96708C51.0614 6.4453 50.2341 6.1005 49.619 6.2235C49.3563 6.27606 48.9607 6.5336 48.7401 6.79581C48.4005 7.19945 48.351 7.37987 48.4178 7.97226C48.523 8.90575 49.0559 9.37986 50 9.37986C50.4822 9.37986 50.7986 9.27818 51.0862 9.03078Z" fill="#2F524E" stroke="#353535" stroke-width="0.155039"/>
</svg>
