<svg width="150" height="150" viewBox="0 0 150 150" fill="none" xmlns="http://www.w3.org/2000/svg">
<g clip-path="url(#clip0_162_240)">
<path d="M70.0123 15V20.0063H60.0186V15C60.0186 12.2438 62.2686 9.99375 65.0248 9.99375C67.8748 9.99375 70.0123 12.15 70.0123 15Z" fill="#2F524E"/>
<path d="M75.0184 15V22.5C75.0184 23.8875 73.8934 24.9937 72.5246 24.9937H12.5246C8.38086 24.9937 5.02461 28.35 5.02461 32.4937V54.9937H17.5309C18.9184 54.9937 20.0246 56.1187 20.0246 57.4875C20.0246 58.875 18.8996 59.9812 17.5309 59.9812H5.04336V94.9875H7.53711C8.92461 94.9875 10.0309 96.1125 10.0309 97.4813C10.0309 98.85 8.90586 99.975 7.53711 99.975H5.04336V107.475C5.04336 111.675 8.34336 114.975 12.5434 114.975C13.9309 114.975 15.0371 116.1 15.0371 117.469C15.0371 118.856 13.9121 119.962 12.5434 119.962C5.51211 120 0.0371094 114.506 0.0371094 107.494V32.4937C0.0371094 25.5938 5.64336 19.9875 12.5434 19.9875H55.0496V15C55.0496 9.4875 59.5309 5.00625 65.0434 5.00625C70.6496 5.00625 75.0184 9.39375 75.0184 15ZM70.0121 20.0062V15C70.0121 12.15 67.8746 9.99375 65.0059 9.99375C62.2684 9.99375 60.0184 12.2437 60.0184 15V20.0062H70.0121Z" fill="black"/>
<path d="M55.0123 54.9937V60H47.5123C46.1248 60 45.0186 61.125 45.0186 62.4937V69.9937H40.0123V62.4937C40.0123 61.1062 38.8873 60 37.5186 60H30.0186V54.9937H37.5186C38.9061 54.9937 40.0123 53.8687 40.0123 52.5V45H45.0186V52.5C45.0186 53.8875 46.1436 54.9937 47.5123 54.9937H55.0123Z" fill="#2F524E"/>
<path d="M60.0188 52.5V62.4937C60.0188 63.8812 58.8938 64.9875 57.525 64.9875H50.025V72.4875C50.025 73.875 48.9 74.9812 47.5313 74.9812H37.5188C36.1313 74.9812 35.025 73.8563 35.025 72.4875V64.9875H27.525C26.1375 64.9875 25.0312 63.8625 25.0312 62.4937V52.5C25.0312 51.1125 26.1563 50.0063 27.525 50.0063H35.025V42.5062C35.025 41.1187 36.15 40.0125 37.5188 40.0125H47.5125C48.9 40.0125 50.0063 41.1375 50.0063 42.5062V50.0063H57.5063C58.8938 50.0063 60.0188 51.1125 60.0188 52.5ZM55.0125 60V54.9937H47.5125C46.125 54.9937 45.0188 53.8687 45.0188 52.5V45H40.0125V52.5C40.0125 53.8875 38.8875 54.9937 37.5188 54.9937H30.0188V60H37.5188C38.9063 60 40.0125 61.125 40.0125 62.4937V69.9937H45.0188V62.4937C45.0188 61.1062 46.1438 60 47.5125 60H55.0125Z" fill="black"/>
<path d="M150.037 87.5062V117.506C150.037 118.894 148.912 120 147.543 120H139.837C138.618 128.475 131.343 135 122.53 135C112.874 135 105.037 127.144 105.037 117.506C105.037 107.85 112.893 100.013 122.53 100.013C131.324 100.013 138.618 106.537 139.837 115.013H145.03V100.013H142.537C141.149 100.013 140.043 98.8875 140.043 97.5187C140.043 96.15 141.168 95.025 142.537 95.025H145.03V87.525C145.03 86.4937 144.693 83.2125 143.268 81.7875L136.499 75H87.543C83.0617 75 80.043 71.9813 80.043 67.5V60H67.5367C66.1492 60 65.043 58.875 65.043 57.5063C65.043 56.1188 66.168 55.0125 67.5367 55.0125H80.043V22.5C80.043 21.1125 81.168 20.0062 82.5367 20.0062H120.037C126.843 20.0062 132.412 25.4812 132.543 32.2688L139.855 71.2875L146.812 78.2437C149.943 81.375 150.037 86.8875 150.037 87.5062ZM134.53 69.9937L127.593 32.9625C127.555 32.8125 127.555 32.6625 127.555 32.4937C127.555 28.425 124.124 24.9937 120.055 24.9937H85.0117V67.5C85.0117 69.1875 85.8367 69.9937 87.5055 69.9937H115.968L120.28 61.3687C120.899 60.1312 122.399 59.625 123.637 60.2437C124.874 60.8625 125.38 62.3625 124.762 63.6L121.574 69.975H134.512V69.9937H134.53ZM135.037 117.506C135.037 110.606 129.43 105 122.53 105C115.63 105 110.024 110.606 110.024 117.506C110.024 124.406 115.63 130.013 122.53 130.013C129.43 130.013 135.037 124.387 135.037 117.506Z" fill="black"/>
<path d="M127.574 32.9625L134.511 69.9937H121.574L124.761 63.6187C125.38 62.3812 124.874 60.8812 123.636 60.2625C122.399 59.6437 120.899 60.15 120.28 61.3875L115.968 70.0125H87.5426C85.8551 70.0125 85.0488 69.1875 85.0488 67.5188V24.9938H120.036C124.105 24.9938 127.536 28.425 127.536 32.4938C127.536 32.6625 127.536 32.8125 127.574 32.9625Z" fill="#2F524E"/>
<path d="M122.531 110.006C118.388 110.006 115.031 113.362 115.031 117.506C115.031 121.65 118.388 125.006 122.531 125.006C126.675 125.006 130.031 121.65 130.031 117.506C130.031 113.362 126.675 110.006 122.531 110.006ZM122.531 120C121.144 120 120.038 118.875 120.038 117.506C120.038 116.137 121.163 115.013 122.531 115.013C123.919 115.013 125.025 116.137 125.025 117.506C125.044 118.875 123.919 120 122.531 120Z" fill="black"/>
<path d="M37.518 105C44.418 105 50.0242 110.606 50.0242 117.506C50.0242 124.406 44.418 130.013 37.518 130.013C30.618 130.013 25.0117 124.406 25.0117 117.506C25.0117 110.606 30.618 105 37.518 105ZM45.018 117.506C45.018 113.362 41.6617 110.006 37.518 110.006C33.3742 110.006 30.018 113.362 30.018 117.506C30.018 121.631 33.3742 125.006 37.518 125.006C41.6617 125.006 45.018 121.631 45.018 117.506Z" fill="#2F524E"/>
<path d="M37.5182 114.994C38.9057 114.994 40.0119 116.119 40.0119 117.487C40.0119 118.856 38.8869 119.981 37.5182 119.981C36.1494 119.981 35.0244 118.856 35.0244 117.487C35.0244 116.119 36.1494 114.994 37.5182 114.994Z" fill="white"/>
<path d="M100.031 82.5V117.506C100.031 118.894 98.9057 120 97.5369 120H54.8244C53.6057 128.475 46.3307 135 37.5182 135C27.8807 135 20.0244 127.144 20.0244 117.506C20.0244 107.85 27.8807 100.013 37.5182 100.013C46.3119 100.013 53.6057 106.538 54.8244 115.013H95.0244V82.5C95.0244 81.1125 96.1494 80.0062 97.5182 80.0062C98.8869 80.0062 100.031 81.1125 100.031 82.5ZM50.0432 117.506C50.0432 110.606 44.4369 105 37.5369 105C30.6369 105 25.0307 110.606 25.0307 117.506C25.0307 124.406 30.6369 130.013 37.5369 130.013C44.4369 130.013 50.0432 124.387 50.0432 117.506Z" fill="black"/>
<path d="M37.5186 110.006C41.6623 110.006 45.0186 113.363 45.0186 117.506C45.0186 121.631 41.6623 125.006 37.5186 125.006C33.3748 125.006 30.0186 121.631 30.0186 117.506C30.0186 113.363 33.3748 110.006 37.5186 110.006ZM40.0123 117.506C40.0123 116.138 38.8873 115.013 37.5186 115.013C36.1498 115.013 35.0248 116.138 35.0248 117.506C35.0248 118.875 36.1498 120 37.5186 120C38.8873 120 40.0123 118.875 40.0123 117.506Z" fill="black"/>
<path d="M122.494 105C129.394 105 135 110.606 135 117.506C135 124.406 129.394 130.013 122.494 130.013C115.594 130.013 109.987 124.406 109.987 117.506C109.987 110.606 115.594 105 122.494 105ZM129.994 117.506C129.994 113.363 126.637 110.006 122.494 110.006C118.35 110.006 114.994 113.363 114.994 117.506C114.994 121.631 118.35 125.006 122.494 125.006C126.637 125.006 129.994 121.631 129.994 117.506Z" fill="#2F524E"/>
<path d="M20.1936 114.975H12.2998V119.963H20.1936V114.975Z" fill="black"/>
<path d="M105.431 115.013H97.5371V120H105.431V115.013Z" fill="black"/>
<path d="M82.8375 20.0062H70.4062V24.9937H82.8375V20.0062Z" fill="black"/>
</g>
<defs>
<clipPath id="clip0_162_240">
<rect width="150" height="150" fill="white"/>
</clipPath>
</defs>
</svg>
