<svg width="22" height="23" viewBox="0 0 22 23" fill="none" xmlns="http://www.w3.org/2000/svg">
<path d="M8.14286 16.7426L5.28571 19.1236V14.8379H2.39194C2.02277 14.8379 1.66873 14.6912 1.40769 14.4301C1.14665 14.1691 1 13.8151 1 13.446V2.42026C1 2.05109 1.14665 1.69705 1.40769 1.43601C1.66873 1.17497 2.02277 1.02832 2.39194 1.02832H17.7033C18.0725 1.02832 18.4265 1.17497 18.6875 1.43601C18.9486 1.69705 19.0952 2.05109 19.0952 2.42026V6.56347" stroke="white" stroke-width="2" stroke-linecap="round" stroke-linejoin="round"/>
<path d="M4.80859 4.83789H15.2848" stroke="white" stroke-width="2" stroke-linecap="round" stroke-linejoin="round"/>
<path d="M4.80859 8.64734H9.5705" stroke="white" stroke-width="2" stroke-linecap="round" stroke-linejoin="round"/>
<path d="M16.2373 18.1712C18.3412 18.1712 20.0468 16.4656 20.0468 14.3617C20.0468 12.2577 18.3412 10.5521 16.2373 10.5521C14.1334 10.5521 12.4277 12.2577 12.4277 14.3617C12.4277 16.4656 14.1334 18.1712 16.2373 18.1712Z" stroke="white" stroke-width="2" stroke-linecap="round" stroke-linejoin="round"/>
<path d="M21.0004 21.0283C20.5401 20.453 19.8539 19.9717 19.0151 19.6363C18.1764 19.3008 17.2166 19.1235 16.2385 19.1235C15.2604 19.1235 14.3006 19.3008 13.4618 19.6363C12.623 19.9717 11.9368 20.453 11.4766 21.0283" stroke="white" stroke-width="2" stroke-linecap="round" stroke-linejoin="round"/>
</svg>
