<svg width="32" height="24" viewBox="0 0 32 24" fill="none" xmlns="http://www.w3.org/2000/svg">
<path d="M1 2.375C1 1.6156 1.61053 1 2.36364 1H29.6364C30.3895 1 31 1.6156 31 2.375C31 3.1344 30.3895 3.75 29.6364 3.75H2.36364C1.61053 3.75 1 3.1344 1 2.375Z" fill="white" stroke="white"/>
<path d="M1 12C1 11.2406 1.61053 10.625 2.36364 10.625H29.6364C30.3895 10.625 31 11.2406 31 12C31 12.7594 30.3895 13.375 29.6364 13.375H2.36364C1.61053 13.375 1 12.7594 1 12Z" fill="white" stroke="white"/>
<path d="M2.36364 20.25C1.61053 20.25 1 20.8656 1 21.625C1 22.3844 1.61053 23 2.36364 23H29.6364C30.3895 23 31 22.3844 31 21.625C31 20.8656 30.3895 20.25 29.6364 20.25H2.36364Z" fill="white" stroke="white"/>
</svg>
