<svg width="100" height="100" viewBox="0 0 100 100" fill="none" xmlns="http://www.w3.org/2000/svg">
<path d="M51.5625 18.2344C53.23 13.857 56.171 10.0798 60.0059 7.38988C63.8408 4.70002 68.3938 3.22098 73.0773 3.14358C77.7609 3.06618 82.3602 4.39397 86.2819 6.95565C90.2036 9.51732 93.2678 13.1954 95.079 17.5152C96.8903 21.8351 97.3656 26.5986 96.4436 31.1912C95.5216 35.7838 93.2446 39.9947 89.9063 43.2808C86.5681 46.5668 82.3218 48.7772 77.7153 49.6267C73.1087 50.4763 68.3533 49.926 64.0625 48.0469" fill="white"/>
<path d="M51.5625 18.2344C53.23 13.857 56.171 10.0798 60.0059 7.38988C63.8408 4.70002 68.3938 3.22098 73.0773 3.14358C77.7609 3.06618 82.3602 4.39397 86.2819 6.95565C90.2036 9.51732 93.2678 13.1954 95.079 17.5152C96.8903 21.8351 97.3656 26.5986 96.4436 31.1912C95.5216 35.7838 93.2446 39.9947 89.9063 43.2808C86.5681 46.5668 82.3218 48.7772 77.7153 49.6267C73.1087 50.4763 68.3533 49.926 64.0625 48.0469" stroke="#353535" stroke-width="3" stroke-linejoin="round"/>
<path d="M57 24.8436C57.4836 23.6664 58.2475 22.6252 59.2252 21.8106C60.2029 20.9959 61.3648 20.4324 62.6098 20.1691C63.8549 19.9057 65.1455 19.9506 66.3693 20.2996C67.5931 20.6487 68.7131 21.2914 69.6319 22.172C70.5507 23.0525 71.2405 24.1442 71.6413 25.352C72.0421 26.5599 72.1418 27.8473 71.9316 29.1025C71.7215 30.3576 71.2079 31.5424 70.4356 32.5539C69.6632 33.5653 68.6555 34.3728 67.5 34.9061" fill="white"/>
<path d="M57 24.8436C57.4836 23.6664 58.2475 22.6252 59.2252 21.8106C60.2029 20.9959 61.3648 20.4324 62.6098 20.1691C63.8549 19.9057 65.1455 19.9506 66.3693 20.2996C67.5931 20.6487 68.7131 21.2914 69.6319 22.172C70.5507 23.0525 71.2405 24.1442 71.6413 25.352C72.0421 26.5599 72.1418 27.8473 71.9316 29.1025C71.7215 30.3576 71.2079 31.5424 70.4356 32.5539C69.6632 33.5653 68.6555 34.3728 67.5 34.9061" fill="#2F524E"/>
<path d="M57 24.8436C57.4836 23.6664 58.2475 22.6252 59.2252 21.8106C60.2029 20.9959 61.3648 20.4324 62.6098 20.1691C63.8549 19.9057 65.1455 19.9506 66.3693 20.2996C67.5931 20.6487 68.7131 21.2914 69.6319 22.172C70.5507 23.0525 71.2405 24.1442 71.6413 25.352C72.0421 26.5599 72.1418 27.8473 71.9316 29.1025C71.7215 30.3576 71.2079 31.5424 70.4356 32.5539C69.6632 33.5653 68.6555 34.3728 67.5 34.9061" stroke="#353535" stroke-width="3" stroke-linejoin="round"/>
<path d="M57.8125 28.125C57.8079 25.935 57.1459 23.7968 55.9124 21.9873C54.6788 20.1778 52.9304 18.7802 50.8936 17.9756C48.8568 17.1709 46.6253 16.9963 44.4881 17.4742C42.3509 17.9522 40.4063 19.0607 38.9063 20.6563C37.3137 18.7526 35.2457 17.3044 32.9122 16.4587C30.5788 15.6129 28.0631 15.3998 25.6207 15.841C23.1783 16.2822 20.8961 17.362 19.006 18.9706C17.116 20.5793 15.6853 22.6595 14.8594 25C13.2179 25.0503 11.6023 25.4234 10.105 26.098C8.60765 26.7726 7.25786 27.7356 6.13267 28.9319C3.86026 31.3479 2.64067 34.5676 2.7422 37.8828C2.84372 41.198 4.25805 44.3371 6.67405 46.6095C9.09004 48.8819 12.3098 50.1015 15.625 50C16.1475 49.9934 16.6692 49.9569 17.1875 49.8906C18.1317 51.5641 19.4489 52.9974 21.0369 54.0791C22.6248 55.1609 24.4408 55.862 26.3437 56.128C28.2466 56.394 30.1853 56.2178 32.009 55.6129C33.8327 55.0081 35.4925 53.991 36.8594 52.6406C39.5895 54.4469 42.9192 55.1102 46.133 54.4879C49.3469 53.8656 52.1884 52.0073 54.0469 49.3125C55.5488 49.8717 57.1553 50.094 58.7526 49.9637C60.35 49.8333 61.8992 49.3535 63.2906 48.5583C64.682 47.763 65.8817 46.6716 66.8047 45.3615C67.7277 44.0513 68.3515 42.5542 68.6319 40.9763C68.9123 39.3984 68.8426 37.7781 68.4276 36.2301C68.0126 34.6821 67.2624 33.2442 66.2303 32.0182C65.1981 30.7922 63.9091 29.808 62.4545 29.1352C60.9998 28.4625 59.4151 28.1176 57.8125 28.125Z" fill="white" stroke="#353535" stroke-width="3" stroke-linejoin="round"/>
<path d="M77.6094 50C76.5423 47.752 76.2737 45.2074 76.8479 42.7862C77.4221 40.3649 78.8047 38.2119 80.7675 36.6824C82.7303 35.1529 85.156 34.3385 87.6442 34.3735C90.1323 34.4085 92.5341 35.2909 94.4531 36.875" stroke="#353535" stroke-width="3" stroke-linejoin="round"/>
<path d="M79.6876 3.95312C79.5011 5.46697 78.7675 6.86039 77.625 7.87086C76.4824 8.88133 75.0098 9.43911 73.4845 9.43911C71.9592 9.43911 70.4865 8.88133 69.344 7.87086C68.2014 6.86039 67.4677 5.46697 67.2812 3.95312" stroke="#353535" stroke-width="3" stroke-linejoin="round"/>
<path d="M84.375 23.4375C86.1009 23.4375 87.5 22.0384 87.5 20.3125C87.5 18.5866 86.1009 17.1875 84.375 17.1875C82.6491 17.1875 81.25 18.5866 81.25 20.3125C81.25 22.0384 82.6491 23.4375 84.375 23.4375Z" fill="#2F524E" stroke="#353535" stroke-width="3" stroke-linejoin="round"/>
<path d="M15.625 43.75C13.9674 43.75 12.3777 43.0915 11.2056 41.9194C10.0335 40.7473 9.375 39.1576 9.375 37.5C9.375 35.8424 10.0335 34.2527 11.2056 33.0806C12.3777 31.9085 13.9674 31.25 15.625 31.25" stroke="#353535" stroke-width="3" stroke-linejoin="round"/>
<path d="M18.75 87.5V79.6875H12.5V73.4375H18.75V64.0625H25V73.4375H31.25V79.6875H25V88.0938" stroke="#353535" stroke-width="3" stroke-linejoin="round"/>
<path d="M46.875 87.5V79.6875H40.625V73.4375H46.875V64.0625H53.125V73.4375H59.375V79.6875H53.125V87.5" fill="white"/>
<path d="M46.875 87.5V79.6875H40.625V73.4375H46.875V64.0625H53.125V73.4375H59.375V79.6875H53.125V87.5" fill="#2F524E"/>
<path d="M46.875 87.5V79.6875H40.625V73.4375H46.875V64.0625H53.125V73.4375H59.375V79.6875H53.125V87.5" stroke="#353535" stroke-width="3" stroke-linejoin="round"/>
<path d="M75 87.9062V79.6875H68.75V73.4375H75V64.0625H81.25V73.4375H87.5V79.6875H81.25V87.5" stroke="#353535" stroke-width="3" stroke-linejoin="round"/>
<path d="M37.5 96.875L33.6563 93.0313C31.9046 91.2777 29.8245 89.8866 27.5349 88.9375C25.2453 87.9884 22.791 87.4999 20.3125 87.5C17.834 87.4999 15.3797 87.9884 13.0901 88.9375C10.8005 89.8866 8.72036 91.2777 6.96875 93.0313L3.125 96.875H96.875L93.0312 93.0313C91.2796 91.2777 89.1995 89.8866 86.9099 88.9375C84.6203 87.9884 82.166 87.4999 79.6875 87.5C77.209 87.4999 74.7547 87.9884 72.4651 88.9375C70.1755 89.8866 68.0954 91.2777 66.3438 93.0313L63 97" fill="white"/>
<path d="M37.5 96.875L33.6563 93.0313C31.9046 91.2777 29.8245 89.8866 27.5349 88.9375C25.2453 87.9884 22.791 87.4999 20.3125 87.5C17.834 87.4999 15.3797 87.9884 13.0901 88.9375C10.8005 89.8866 8.72036 91.2777 6.96875 93.0313L3.125 96.875H96.875L93.0312 93.0313C91.2796 91.2777 89.1995 89.8866 86.9099 88.9375C84.6203 87.9884 82.166 87.4999 79.6875 87.5C77.209 87.4999 74.7547 87.9884 72.4651 88.9375C70.1755 89.8866 68.0954 91.2777 66.3438 93.0313L63 97" fill="#2F524E"/>
<path d="M37.5 96.875L33.6563 93.0313C31.9046 91.2777 29.8245 89.8866 27.5349 88.9375C25.2453 87.9884 22.791 87.4999 20.3125 87.5C17.834 87.4999 15.3797 87.9884 13.0901 88.9375C10.8005 89.8866 8.72036 91.2777 6.96875 93.0313L3.125 96.875H96.875L93.0312 93.0313C91.2796 91.2777 89.1995 89.8866 86.9099 88.9375C84.6203 87.9884 82.166 87.4999 79.6875 87.5C77.209 87.4999 74.7547 87.9884 72.4651 88.9375C70.1755 89.8866 68.0954 91.2777 66.3438 93.0313L63 97" stroke="#353535" stroke-width="3" stroke-linejoin="round"/>
<path d="M34.5 95.5L36.7188 92.9688C40.2512 89.4654 45.0249 87.4998 50 87.5C52.4785 87.4999 54.9329 87.9884 57.2225 88.9375C59.5121 89.8866 61.5921 91.2777 63.3438 93.0313L67.1875 96.875" stroke="#353535" stroke-width="3" stroke-linejoin="round"/>
<path d="M78.4007 47.7593C78.0109 46.3776 77.9869 44.555 78.3397 43.115C78.683 41.7136 79.391 40.3157 80.2994 39.2457C83.077 35.9739 87.6723 34.979 91.5194 36.8164C91.7954 36.9482 92.1373 37.1266 92.2793 37.2128L92.5374 37.3696L92.3785 37.6441C92.0924 38.1381 91.3292 39.2785 90.9526 39.7747C88.9313 42.4382 86.3759 44.5807 83.4161 46.0933C82.0938 46.769 80.4464 47.3984 79.031 47.7687L78.4465 47.9216L78.4007 47.7593Z" fill="#2F524E"/>
<path d="M72.9581 7.88952C71.839 7.74895 70.7237 7.1685 69.9735 6.3362C69.5575 5.87468 69.1036 5.12203 69.2182 5.08366C69.3458 5.04091 70.0685 4.92407 70.711 4.84234C72.8166 4.57445 74.9703 4.61589 77.0546 4.96439C77.6595 5.06553 77.759 5.09335 77.7538 5.15984C77.7428 5.29689 77.3842 5.877 77.1029 6.21266C76.2444 7.23684 75.0319 7.83487 73.672 7.90484C73.441 7.91672 73.1198 7.90982 72.9581 7.88952Z" fill="#2F524E"/>
</svg>
