<svg width="24" height="24" viewBox="0 0 24 24" fill="none" xmlns="http://www.w3.org/2000/svg">
<path d="M1.39296 1.39341C1.92994 0.856438 2.79694 0.852851 3.32947 1.38538L22.6142 20.6701C23.1467 21.2027 23.1431 22.0696 22.6062 22.6066C22.0692 23.1436 21.2022 23.1472 20.6697 22.6147L1.38493 3.32992C0.852399 2.79739 0.855987 1.93039 1.39296 1.39341Z" fill="white" stroke="white"/>
<path d="M22.6068 1.39345C23.1438 1.93043 23.1474 2.79743 22.6149 3.32996L3.33013 22.6147C2.79759 23.1472 1.9306 23.1436 1.39363 22.6067C0.856651 22.0697 0.853044 21.2027 1.38559 20.6701L20.6703 1.38542C21.2028 0.852887 22.0699 0.856475 22.6068 1.39345Z" fill="white" stroke="white"/>
</svg>
