<svg width="100" height="100" viewBox="0 0 100 100" fill="none" xmlns="http://www.w3.org/2000/svg">
<g clip-path="url(#clip0_104_1419)">
<mask id="mask0_104_1419" style="mask-type:luminance" maskUnits="userSpaceOnUse" x="0" y="0" width="100" height="100">
<path d="M100 0H0V100H100V0Z" fill="white"/>
</mask>
<g mask="url(#mask0_104_1419)">
<path d="M63.8698 79.8222C62.6434 80.3733 61.3708 80.852 60.087 81.2458C58.9917 81.5817 58.376 82.7417 58.7118 83.8372C58.9854 84.73 59.8067 85.304 60.6946 85.304C60.8959 85.304 61.1008 85.2745 61.3034 85.2124C62.7512 84.7684 64.1868 84.2282 65.5703 83.6065C66.6153 83.1368 67.0819 81.9091 66.6121 80.8641C66.1426 79.8192 64.9145 79.3528 63.8698 79.8222Z" fill="#353535"/>
<path d="M43.2642 18.0904C43.4076 18.0904 43.5535 18.0756 43.6992 18.0443C45.0111 17.7642 46.3561 17.564 47.6967 17.4486C48.8382 17.3504 49.6839 16.3455 49.5856 15.2039C49.4874 14.0625 48.4838 13.2174 47.3412 13.3148C45.8297 13.4449 44.3128 13.6711 42.8333 13.9867C41.7128 14.2258 40.9986 15.3279 41.2375 16.4484C41.4455 17.423 42.3062 18.0904 43.2642 18.0904Z" fill="#353535"/>
<path d="M57.2795 18.0292C58.5949 18.3068 59.9061 18.6702 61.1764 19.1095C61.401 19.1872 61.6297 19.2239 61.8547 19.2239C62.7143 19.2239 63.5184 18.6851 63.815 17.8271C64.1895 16.7443 63.6152 15.563 62.5324 15.1886C61.0992 14.6927 59.6201 14.2829 58.136 13.9697C57.0141 13.7329 55.9145 14.4503 55.6779 15.5712C55.4414 16.6919 56.1584 17.7925 57.2795 18.0292Z" fill="#353535"/>
<path d="M30.0883 23.9896C30.5123 23.9896 30.9405 23.8599 31.3094 23.591C32.3957 22.7982 33.5422 22.0654 34.7158 21.4135C35.7174 20.857 36.0783 19.5941 35.5219 18.5926C34.9654 17.591 33.703 17.2299 32.701 17.7865C31.3785 18.5211 30.0873 19.3465 28.8635 20.2393C27.9381 20.9144 27.7352 22.2123 28.4104 23.1379C28.8168 23.6945 29.4481 23.9896 30.0883 23.9896Z" fill="#353535"/>
<path d="M50.6018 82.6723C50.5989 82.6723 50.5961 82.6723 50.5932 82.6723H50.5254C49.1768 82.6723 47.8186 82.5889 46.4883 82.4244C45.3508 82.283 44.3155 83.0916 44.1751 84.2285C44.0344 85.3654 44.8422 86.4014 45.9792 86.5418C47.4778 86.727 49.0073 86.8211 50.5252 86.8211H50.6096C51.7551 86.8166 52.6803 85.884 52.6758 84.7383C52.6713 83.5955 51.7436 82.6723 50.6018 82.6723Z" fill="#353535"/>
<path d="M37.2467 79.8513C36.0201 79.3035 34.8146 78.6724 33.6635 77.9755C32.6832 77.3824 31.408 77.6959 30.8147 78.6761C30.2215 79.6564 30.5352 80.9318 31.5152 81.525C32.8129 82.3103 34.1721 83.0216 35.5547 83.6392C35.8295 83.7621 36.1168 83.8201 36.3996 83.8201C37.1932 83.8201 37.9504 83.3623 38.2947 82.5912C38.7619 81.5455 38.2928 80.3185 37.2467 79.8513Z" fill="#353535"/>
<path d="M84.2333 58.7026C83.1433 58.3499 81.9736 58.9475 81.6208 60.0375C81.2074 61.3157 80.7087 62.5815 80.1384 63.8C79.6529 64.8377 80.1005 66.0725 81.138 66.5582C81.4224 66.6912 81.7214 66.7543 82.0158 66.7543C82.7962 66.7543 83.5437 66.3121 83.896 65.5586C84.5392 64.1846 85.1017 62.7569 85.5683 61.3153C85.921 60.225 85.3234 59.0555 84.2333 58.7026Z" fill="#353535"/>
<path d="M23.7417 68.6919C23.0844 67.7534 21.7911 67.5253 20.8526 68.1821C19.9141 68.8391 19.686 70.1327 20.3428 71.0712C21.2108 72.3106 22.1651 73.5094 23.1794 74.6344C23.5891 75.0887 24.1536 75.3196 24.7206 75.3196C25.2157 75.3196 25.7126 75.1432 26.1092 74.7856C26.9602 74.0184 27.0278 72.7069 26.2604 71.8559C25.36 70.8573 24.5124 69.7924 23.7417 68.6919Z" fill="#353535"/>
<path d="M77.7653 71.6474C76.9132 70.8823 75.6015 70.9524 74.836 71.805C73.9376 72.8056 72.9679 73.7608 71.9534 74.644C71.0894 75.3964 70.9989 76.7069 71.7513 77.5708C72.1614 78.0419 72.7374 78.2829 73.3165 78.2829C73.7997 78.2829 74.2851 78.1151 74.678 77.7729C75.82 76.7784 76.9118 75.703 77.9231 74.5769C78.6884 73.7241 78.6177 72.4128 77.7653 71.6474Z" fill="#353535"/>
<path d="M99.7217 45.0075L82.7186 15.5572C82.4339 15.0636 81.9583 14.7092 81.404 14.5765C80.8499 14.4443 80.2653 14.5457 79.788 14.8572L79.2542 15.2056C71.1862 8.51988 61.1357 4.88043 50.5252 4.88043C38.4732 4.88043 27.1428 9.57359 18.6209 18.0955C16.6512 20.0652 14.8912 22.1878 13.3418 24.4326L11.4088 23.9185C10.3032 23.6244 9.16801 24.2814 8.87192 25.3865L0.0707621 58.2343C-0.072011 58.7663 0.0031842 59.3333 0.278965 59.8102C0.554941 60.287 1.00904 60.6346 1.54127 60.7761L7.07915 62.2485C9.14203 69.6077 13.069 76.3518 18.6209 81.9041C27.143 90.426 38.4734 95.1191 50.5252 95.1191C62.5769 95.1191 73.9073 90.426 82.4294 81.9041C90.9485 73.3848 95.6413 62.0587 95.6442 50.0112L99.0592 47.7821C99.9817 47.1798 100.273 45.9614 99.7217 45.0075ZM50.5253 9.02964C59.9536 9.02964 68.6464 12.2332 75.5776 17.606L68.7402 22.0699C67.8179 22.672 67.5269 23.8902 68.0779 24.8443L68.6564 25.8464L65.0954 27.9025C63.8269 28.6349 62.4105 28.8845 60.647 28.6847L44.623 24.4279C41.9384 23.7082 39.156 25.2408 38.1519 27.9921C38.1174 28.0876 38.0892 28.1855 38.0689 28.2851C37.8078 29.5529 37.8506 30.8136 38.1451 31.9876L37.9502 31.9353C35.9146 31.3898 33.7418 31.2933 31.6664 31.6556C30.1814 31.9154 28.6268 31.8458 27.1703 31.4556L23.1985 30.3911L23.4953 29.283C23.6381 28.7509 23.5629 28.1839 23.2871 27.707C23.0111 27.2302 22.557 26.8826 22.0248 26.7412L17.6555 25.5792C25.1291 15.5441 37.0789 9.02964 50.5253 9.02964ZM76.578 44.1437C75.7595 42.7263 74.4419 41.713 72.8681 41.2915L44.7896 33.74C42.9222 33.2396 41.7662 31.3031 42.1013 29.2855C42.3513 28.7318 42.8847 28.2576 43.5529 28.4363C43.5529 28.4363 59.9052 32.7738 59.9978 32.7853C62.7292 33.1267 65.0747 32.7046 67.1691 31.4952L70.73 29.4392L82.4462 49.7323L77.6604 52.038C77.254 51.5589 76.7731 51.1386 76.2276 50.7997C76.6603 50.2097 76.9925 49.5313 77.1931 48.7825C77.6151 47.2087 77.3964 45.5612 76.578 44.1437ZM49.5584 56.0792L68.0775 61.0415C68.8443 61.4667 69.2554 62.378 69.0169 63.2684C68.7403 64.3005 67.6759 64.9147 66.6437 64.6385L46.3002 59.2493C45.1935 58.9526 44.056 59.6095 43.7593 60.7161C43.4627 61.8227 44.1195 62.9602 45.2261 63.2569L62.7075 67.9411C63.4745 68.3663 63.8861 69.2776 63.6476 70.1682C63.5136 70.6682 63.1931 71.086 62.7447 71.3448C62.2966 71.6034 61.7747 71.6723 61.2743 71.5383L29.4232 63.0038C28.0502 62.6358 26.7875 62.0034 25.6703 61.1243L25.4219 60.929C23.8609 59.7005 22.0963 58.8167 20.1776 58.3028L16.0176 57.1882L22.124 34.399L26.0957 35.4632C28.1309 36.0083 30.3039 36.1052 32.3795 35.7429C33.8648 35.4835 35.4195 35.5527 36.8756 35.9429L71.7944 45.2995C72.8425 45.5804 73.4667 46.6614 73.1817 47.7235C72.9026 48.7636 71.8579 49.3569 70.8027 49.0767L70.7982 49.0755C70.6358 49.0319 54.2724 44.7091 54.2724 44.7091C53.1652 44.4124 52.0285 45.0694 51.7318 46.1759C51.4351 47.2825 52.0919 48.42 53.1986 48.7167L73.513 54.0981C74.5612 54.379 75.1854 55.46 74.9046 56.5079C74.6284 57.5397 73.5628 58.1548 72.5315 57.8778L50.632 52.0716C49.5242 51.7743 48.3879 52.4319 48.0914 53.5384C47.7949 54.645 48.4517 55.7825 49.5584 56.0792ZM4.61607 57.3005L12.3438 28.4603L18.949 30.2165L11.2215 59.0567L4.61607 57.3005ZM50.5253 90.9703C32.668 90.9703 17.443 79.4864 11.8463 63.5161L12.1565 63.5987C12.335 63.6462 12.5143 63.6688 12.6909 63.6688C13.6069 63.6688 14.445 63.0573 14.6934 62.1307L14.944 61.1956L19.1039 62.3102C20.4768 62.678 21.7393 63.3102 22.8567 64.1897L23.1051 64.385C24.6658 65.6133 26.4305 66.4969 28.3494 67.0112L60.2007 75.5457C60.7249 75.6862 61.2572 75.7559 61.7861 75.7559C62.8408 75.7559 63.8816 75.4793 64.8193 74.9377C66.2273 74.125 67.2345 72.8122 67.6552 71.2419C67.8736 70.4266 67.9163 69.6051 67.8064 68.8178C70.2275 68.5501 72.3571 66.8333 73.0243 64.3423C73.2269 63.5868 73.2782 62.8257 73.1974 62.0915C75.8196 62.019 78.1997 60.2417 78.9124 57.5815C79.0593 57.0337 79.1224 56.4833 79.1169 55.9419L84.5266 53.3352L85.0806 54.2944C85.8286 55.6454 87.671 55.2163 88.0112 54.9944L91.3965 52.7845C89.9598 74.0813 72.1802 90.9703 50.5253 90.9703ZM87.5782 50.3222L72.6526 24.4703L80.2212 19.5293L95.1467 45.3812L87.5782 50.3222Z" fill="#353535"/>
</g>
<path d="M7.92896 58.1314C6.20411 57.67 4.77277 57.278 4.74821 57.2603C4.70696 57.2307 12.3088 28.6962 12.3854 28.5929C12.4251 28.5394 18.6998 30.1988 18.7867 30.2857C18.8566 30.3556 11.2088 58.9958 11.1242 58.9808C11.0917 58.9751 9.65382 58.5928 7.92896 58.1314Z" fill="#2F524E" stroke="#353535" stroke-width="0.118343"/>
<path d="M80.1838 37.3696C76.1045 30.3041 72.8101 24.4844 72.8629 24.437C72.9157 24.3895 74.587 23.2877 76.5769 21.9885L80.1949 19.6263L87.544 32.3575C91.586 39.3597 94.9106 45.1581 94.9319 45.2428C94.9662 45.379 93.3212 46.5038 88.7413 49.4757L87.6007 50.2159L80.1838 37.3696Z" fill="#2F524E" stroke="#353535" stroke-width="0.118343"/>
<path d="M48.5795 90.8756C40.503 90.3789 33.2754 87.8678 26.887 83.3389C20.2267 78.6173 14.8084 71.5425 12.1264 64.0658L11.9717 63.6346L12.4363 63.6969C13.4788 63.8367 14.5158 63.0769 14.801 61.9644C14.9046 61.5601 15.0171 61.3609 15.1417 61.3609C15.4182 61.3609 19.4825 62.4835 20.2435 62.7701C21.071 63.0818 21.9867 63.6314 23.1946 64.5416C24.3039 65.3775 25.296 65.949 26.5145 66.4539C26.9994 66.6549 34.8517 68.8208 43.9642 71.267C61.9642 76.0992 61.6424 76.0261 63.1986 75.6317C64.436 75.3181 65.1918 74.8857 66.0969 73.9735C67.3159 72.745 67.9228 71.2846 67.9269 69.5696L67.9286 68.8434L68.4623 68.7634C68.7558 68.7194 69.4158 68.4732 69.929 68.2164C71.9414 67.2091 73.254 65.1246 73.254 62.9359C73.254 62.2604 73.2779 62.1892 73.5203 62.1425C74.8299 61.8902 75.236 61.7712 75.8713 61.4537C76.7983 60.9905 77.9402 59.8625 78.4323 58.9239C78.8195 58.1853 79.1663 56.9649 79.1695 56.3303C79.1711 55.9991 79.2435 55.9402 80.2067 55.4876C80.7762 55.22 81.9725 54.6511 82.8651 54.2234L84.488 53.4458L84.8978 54.1194C85.3592 54.8778 85.7795 55.1766 86.5295 55.2794C87.3328 55.3895 87.866 55.1735 89.6227 54.0262C90.5219 53.439 91.2742 52.9586 91.2946 52.9586C91.4018 52.9586 90.9428 56.4639 90.636 57.9881C88.2794 69.6946 80.8487 79.8721 70.3828 85.7282C65.5802 88.4154 60.2661 90.0976 54.6742 90.7009C53.4227 90.8359 49.6787 90.9432 48.5795 90.8756ZM51.1804 86.7911C51.7971 86.6199 52.4856 85.9227 52.6534 85.2996C52.8848 84.4403 52.5537 83.5373 51.8014 82.9756C51.551 82.7887 51.1939 82.7214 50.0336 82.6425C49.2339 82.5881 48.0144 82.4928 47.3238 82.4307C45.8959 82.3022 45.4111 82.3877 44.8393 82.8688C43.8714 83.6833 43.9052 85.3948 44.9042 86.1567C45.3954 86.5314 46.0979 86.6703 48.1062 86.7899C50.5286 86.9341 50.6649 86.9342 51.1804 86.7911ZM62.3665 84.9223C64.0374 84.359 65.8548 83.5826 66.1807 83.2928C66.5218 82.9896 66.8584 82.2065 66.8584 81.716C66.8584 81.2337 66.5234 80.4436 66.1955 80.1524C65.854 79.8492 65.1492 79.5858 64.6794 79.5858C64.4503 79.5858 63.7962 79.7795 63.2259 80.0163C62.6556 80.2531 61.6032 80.656 60.8872 80.9117C59.1214 81.5421 58.5795 82.0924 58.5795 83.2553C58.5795 84.0994 59.0839 84.8498 59.8848 85.1972C60.5032 85.4654 60.879 85.4238 62.3665 84.9223ZM37.6779 83.4507C38.6872 82.6809 38.8148 81.3149 37.9675 80.35C37.7517 80.1042 37.233 79.7633 36.7003 79.5172C36.2043 79.2881 35.2393 78.7889 34.5559 78.4079C33.8724 78.0269 33.1446 77.6801 32.9386 77.6373C31.6252 77.3645 30.2292 78.7769 30.4817 80.1229C30.6667 81.1089 31.1742 81.5194 33.9551 82.9326C35.7545 83.8471 35.8158 83.8683 36.5239 83.8235C37.0893 83.7877 37.3439 83.7054 37.6779 83.4507ZM74.4106 78.047C74.9967 77.6896 77.7408 74.9838 78.1242 74.3851C79.2523 72.6238 77.4893 70.4296 75.5854 71.2251C75.186 71.392 71.6203 74.8369 71.38 75.2881C71.3042 75.4302 71.2423 75.8617 71.2423 76.2469C71.2423 77.0501 71.517 77.5683 72.1797 78.0149C72.7145 78.3753 73.8455 78.3915 74.4106 78.047ZM25.6684 75.154C26.2388 74.859 26.7214 74.2041 26.8116 73.6027C26.9299 72.8136 26.7264 72.2861 25.9673 71.4139C25.602 70.9942 24.9408 70.1716 24.4978 69.5858C24.0549 69 23.5672 68.4044 23.4141 68.2623C22.7993 67.6916 21.8932 67.5974 21.0612 68.0177C20.162 68.472 19.726 69.457 19.99 70.4375C20.2061 71.2401 22.9436 74.7049 23.6683 75.0931C24.1724 75.3631 25.2033 75.3945 25.6684 75.154ZM82.8881 66.6394C83.4505 66.4044 83.869 65.8213 84.4481 64.4659C85.8897 61.0914 86.0135 60.03 85.0685 59.1476C84.7342 58.8355 84.0168 58.5204 83.6425 58.5214C83.0931 58.5227 82.4686 58.7809 82.1144 59.1531C81.8696 59.4104 81.5438 60.0781 81.1213 61.1881C80.7756 62.0968 80.3564 63.1597 80.1898 63.5503C79.8309 64.3916 79.8084 64.9187 80.1039 65.5621C80.5958 66.6333 81.7935 67.0968 82.8881 66.6394Z" fill="#2F524E" stroke="#353535" stroke-width="0.118343"/>
<path d="M37.1601 31.6971C36.037 31.4034 33.4633 31.3582 31.5479 31.5985C30.1252 31.777 29.691 31.7891 28.8047 31.675C27.8835 31.5563 23.5095 30.4718 23.3635 30.3258C23.3337 30.2959 23.3917 29.9157 23.4926 29.4809C23.7081 28.5518 23.6046 27.9745 23.1192 27.3976C22.6802 26.8759 22.4364 26.7768 20.0299 26.1418C18.842 25.8284 17.8701 25.5333 17.8701 25.4861C17.8701 25.163 21.0508 21.5906 22.6172 20.1544C29.3759 13.9575 37.0539 10.4106 46.0358 9.33594C48.3595 9.05793 52.691 9.05689 55.0299 9.33378C61.6526 10.1178 67.6531 12.322 73.1364 15.985C75.3763 17.4813 75.4617 17.5474 75.3194 17.6762C75.2578 17.7319 73.7429 18.7262 71.953 19.8856C70.163 21.0451 68.5736 22.1043 68.421 22.2395C67.6791 22.8964 67.5592 23.987 68.1141 25.0296C68.3046 25.3876 68.4767 25.7149 68.4965 25.757C68.5392 25.8476 65.5163 27.6154 64.4833 28.104C63.5942 28.5245 62.3346 28.7469 61.31 28.6643C60.853 28.6275 57.218 27.7151 52.4855 26.4493C47.7747 25.1893 44.1181 24.2713 43.6663 24.2351C41.4716 24.0593 39.4052 25.2847 38.3733 27.3739L37.9293 28.2728V30.0832C37.9293 31.0789 37.9027 31.8876 37.8701 31.8804C37.8376 31.8732 37.518 31.7907 37.1601 31.6971ZM30.7695 23.9185C30.9973 23.8338 31.7768 23.3701 32.5017 22.8882C33.2266 22.4062 34.1442 21.8151 34.5409 21.5745C35.5641 20.9542 35.9906 20.1507 35.8094 19.1848C35.6352 18.2564 34.6628 17.4556 33.7094 17.4556C33.1697 17.4556 31.9299 18.0782 30.2734 19.181C28.6978 20.2299 28.3378 20.562 28.0991 21.1872C27.7717 22.0443 28.115 23.2495 28.7979 23.6406C29.5767 24.0866 30.1137 24.1623 30.7695 23.9185ZM62.9681 18.9617C64.151 18.1646 64.3174 16.6561 63.3312 15.6699C62.9958 15.3345 62.6427 15.1549 61.769 14.875C59.6665 14.2015 58.2132 13.8803 57.4971 13.9308C56.3155 14.0141 55.6216 14.804 55.6216 16.0655C55.6216 17.2642 56.276 17.868 58.0117 18.2707C58.6173 18.4112 59.592 18.6797 60.1778 18.8674C61.5368 19.3028 62.4178 19.3326 62.9681 18.9617ZM45.0864 17.8734C46.0967 17.7126 47.2269 17.5493 47.5979 17.5106C49.6754 17.2935 50.3909 14.8702 48.7412 13.6385C48.1118 13.1686 47.1226 13.1773 44.1456 13.6787C42.5001 13.9559 41.9242 14.1924 41.5232 14.7556C41.1729 15.2476 41.0727 16.4259 41.3381 16.9342C41.6727 17.5752 42.4511 18.123 43.0746 18.1563C43.1708 18.1614 44.0761 18.0341 45.0864 17.8734Z" fill="#2F524E" stroke="#353535" stroke-width="0.118343"/>
</g>
<defs>
<clipPath id="clip0_104_1419">
<rect width="100" height="100" fill="white"/>
</clipPath>
</defs>
</svg>
