<svg width="116" height="125" viewBox="0 0 116 125" fill="none" xmlns="http://www.w3.org/2000/svg">
<path d="M115.798 118.744V124.987H0.202148V118.744H12.3749V40.6125C12.3749 35.4375 16.4629 31.2375 21.4999 31.2375H36.7021V9.375C36.7021 4.2 40.7901 0 45.8271 0H70.1544C75.1914 0 79.2794 4.2 79.2794 9.375V31.2562H94.4999C99.5369 31.2562 103.625 35.4562 103.625 40.6312V118.744H115.798ZM97.5477 118.744V40.6125C97.5477 38.8875 96.1789 37.4813 94.4999 37.4813H78.7684C77.5091 41.1188 74.1329 43.725 70.1727 43.725H45.8271C41.8486 43.725 38.4724 41.1188 37.2314 37.4813H21.4999C19.8209 37.4813 18.4521 38.8875 18.4521 40.6125V118.744H45.8271V100.2C45.8271 93.1687 51.3934 87.3562 58.2371 87.4875C64.8437 87.6187 70.1544 93.1687 70.1544 99.9937V118.744H97.5477ZM73.2021 34.3688V9.375C73.2021 7.65 71.8334 6.24375 70.1544 6.24375H45.8271C44.1481 6.24375 42.7794 7.65 42.7794 9.375V34.3688C42.7794 36.0938 44.1481 37.5 45.8271 37.5H70.1544C71.8516 37.5 73.2021 36.0938 73.2021 34.3688ZM64.0771 118.744V99.9937C64.0771 96.675 61.5587 93.975 58.4014 93.75C54.8427 93.5062 51.9227 96.4688 51.9227 100.125V118.744H64.0771Z" fill="black"/>
<path d="M97.548 40.6125V118.744H70.173V99.9937C70.173 93.1688 64.8622 87.6375 58.2557 87.4875C51.412 87.3375 45.8457 93.15 45.8457 100.2V118.744H18.4707V40.6125C18.4707 38.8875 19.8395 37.4813 21.5185 37.4813H37.25C38.5092 41.1188 41.8855 43.725 45.8457 43.725H70.173C74.1515 43.725 77.5277 41.1188 78.7687 37.4813H94.5002C96.1792 37.5 97.548 38.8875 97.548 40.6125Z" fill="#2F524E"/>
<path d="M73.202 9.375V34.3688C73.202 36.0938 71.8333 37.5 70.1543 37.5H45.827C44.148 37.5 42.7793 36.0938 42.7793 34.3688V9.375C42.7793 7.65 44.148 6.24375 45.827 6.24375H70.1543C71.8515 6.24375 73.202 7.65 73.202 9.375Z" fill="black"/>
<path fill-rule="evenodd" clip-rule="evenodd" d="M48.8749 24.9937H54.9521V31.2375C54.9521 32.9625 56.3209 34.3687 57.9999 34.3687C59.6789 34.3687 61.0477 32.9625 61.0477 31.2375V24.9937H67.1249C68.8039 24.9937 70.1727 23.5875 70.1727 21.8625C70.1727 20.1375 68.8039 18.7312 67.1249 18.7312H61.0477V12.4875C61.0477 10.7625 59.6789 9.35625 57.9999 9.35625C56.3209 9.35625 54.9521 10.7625 54.9521 12.4875V18.7312H48.8749C47.1959 18.7312 45.8271 20.1375 45.8271 21.8625C45.8271 23.5875 47.1959 24.9937 48.8749 24.9937Z" fill="white"/>
<path d="M39.7499 49.9875H27.5771V62.4937H39.7499V49.9875Z" fill="white"/>
<path d="M39.7499 68.7375H27.5771V81.2437H39.7499V68.7375Z" fill="white"/>
<path d="M64.0956 49.9875H51.9229V62.4937H64.0956V49.9875Z" fill="white"/>
<path d="M64.0956 68.7375H51.9229V81.2437H64.0956V68.7375Z" fill="white"/>
<path d="M88.4228 49.9875H76.25V62.4937H88.4228V49.9875Z" fill="white"/>
<path d="M88.4228 68.7375H76.25V81.2437H88.4228V68.7375Z" fill="white"/>
</svg>
