<svg width="25" height="25" viewBox="0 0 25 25" fill="none" xmlns="http://www.w3.org/2000/svg">
<g clip-path="url(#clip0_104_1358)">
<path d="M17.4217 0.0641301C16.9663 -0.0956417 16.4597 0.0497363 16.1582 0.426552L7.06733 11.7904C6.73536 12.2054 6.73536 12.7952 7.0674 13.2102L16.1583 24.5735C16.3781 24.8483 16.7071 25 17.0458 25C17.1714 25 17.2986 24.9791 17.4217 24.9358C17.8772 24.7761 18.182 24.3461 18.182 23.8635V1.1364C18.1819 0.653748 17.8771 0.223826 17.4217 0.0641301Z" fill="white"/>
</g>
<defs>
<clipPath id="clip0_104_1358">
<path d="M0 0H13C19.6274 0 25 5.37258 25 12V13C25 19.6274 19.6274 25 13 25H0V0Z" fill="white"/>
</clipPath>
</defs>
</svg>
