<svg width="30" height="30" viewBox="0 0 30 30" fill="none" xmlns="http://www.w3.org/2000/svg">
<g clip-path="url(#clip0_247_171)">
<path d="M12.1099 15.0063L23.3329 3.78293C23.6419 3.47463 23.8119 3.06244 23.8119 2.62293C23.8119 2.18317 23.6419 1.77122 23.3329 1.46244L22.3495 0.479512C22.0409 0.170244 21.6285 0 21.189 0C20.7495 0 20.3375 0.170244 20.0287 0.479512L6.66604 13.842C6.35604 14.1517 6.18629 14.5656 6.18751 15.0056C6.18629 15.4476 6.3558 15.861 6.66604 16.171L20.0163 29.5205C20.3251 29.8298 20.737 30 21.1768 30C21.6163 30 22.0282 29.8298 22.3373 29.5205L23.3204 28.5376C23.9602 27.8978 23.9602 26.8563 23.3204 26.2168L12.1099 15.0063Z" fill="#353535"/>
</g>
<defs>
<clipPath id="clip0_247_171">
<rect width="30" height="30" fill="white"/>
</clipPath>
</defs>
</svg>
