<svg width="60" height="60" viewBox="0 0 60 60" fill="none" xmlns="http://www.w3.org/2000/svg">
<path d="M55.4444 30C57.9604 30 60.0354 27.9489 59.6548 25.4619C59.2908 23.0837 58.6413 20.7524 57.7164 18.5195C56.2087 14.8797 53.999 11.5726 51.2132 8.7868C48.4274 6.00104 45.1203 3.79125 41.4805 2.28361C39.2476 1.3587 36.9163 0.709165 34.5381 0.345225C32.0511 -0.035367 30 2.03959 30 4.55556L30 4.79895C30 7.31491 32.0637 9.30441 34.5187 9.85508C35.6719 10.1138 36.8036 10.4716 37.9007 10.9261C40.4055 11.9636 42.6815 13.4843 44.5986 15.4014C46.5157 17.3185 48.0364 19.5945 49.0739 22.0993C49.5284 23.1964 49.8862 24.3281 50.1449 25.4813C50.6956 27.9363 52.6851 30 55.201 30H55.4444Z" fill="#2F524E"/>
</svg>
