<svg width="151" height="53" viewBox="0 0 151 53" fill="none" xmlns="http://www.w3.org/2000/svg">
<path d="M70.2876 0.23584C65.3603 0.23584 61.3633 1.47128 61.3633 3.01196C61.3633 4.5381 65.3603 5.78809 70.2876 5.78809C75.2148 5.78809 79.2119 4.55264 79.2119 3.01196C79.2264 1.47128 75.2294 0.23584 70.2876 0.23584ZM70.2876 4.20381C66.9737 4.20381 64.2847 3.66602 64.2847 3.01196C64.2847 2.34336 66.9737 1.82012 70.2876 1.82012C73.6015 1.82012 76.2904 2.3579 76.2904 3.01196C76.2904 3.66602 73.6015 4.20381 70.2876 4.20381Z" fill="white"/>
<path d="M76.2607 26.2529C76.2607 26.2529 76.4352 16.2821 90.0251 14.1746C103.615 12.0671 104.778 10.0903 104.778 10.0903C104.778 10.0903 103.615 15.5699 95.1558 21.1658C95.1558 21.1658 97.5831 20.7588 99.0075 19.9448C99.0075 19.9448 97.4378 28.4476 84.4147 29.7994C84.4147 29.7994 91.3332 26.8052 93.0483 23.6221C93.0483 23.6221 89.2402 22.9245 85.156 24.6686C85.156 24.6686 86.7112 22.2995 90.839 20.7442C94.9669 19.189 96.9 16.035 96.9 16.035C96.9 16.035 92.5105 16.9943 89.0513 17.7065C89.0367 17.721 79.7781 19.0873 76.2607 26.2529Z" fill="white"/>
<path d="M63.9936 26.2529C63.9936 26.2529 63.8192 16.2821 50.2293 14.1746C36.6393 12.0671 35.4766 10.0903 35.4766 10.0903C35.4766 10.0903 36.6393 15.5699 45.0985 21.1658C45.0985 21.1658 42.6712 20.7588 41.2468 19.9448C41.2468 19.9448 42.8166 28.4476 55.8396 29.7994C55.8396 29.7994 48.9211 26.8052 47.206 23.6221C47.206 23.6221 51.0141 22.9245 55.0984 24.6686C55.0984 24.6686 53.5432 22.2995 49.4153 20.7442C45.2875 19.189 43.3544 16.035 43.3544 16.035C43.3544 16.035 47.7438 16.9943 51.2031 17.7065C51.2176 17.721 60.4762 19.0873 63.9936 26.2529Z" fill="white"/>
<path d="M2.57022 51.4415C2.54115 51.4415 2.51208 51.427 2.49754 51.4125H0.95687C0.884197 51.4125 0.826057 51.3543 0.826057 51.2817V51.1363C0.826057 51.0636 0.884197 51.0055 0.95687 51.0055C1.52372 51.0055 1.91616 50.8601 2.11964 50.5694C2.33766 50.2642 2.43941 49.8136 2.43941 49.2177V35.497C2.0179 35.1772 1.50919 35.0173 0.942335 35.0173C0.869661 35.0173 0.811523 34.9592 0.811523 34.8865V34.7267C0.811523 34.654 0.869661 34.5958 0.942335 34.5958H2.57022L5.2446 34.5668C5.2882 34.5668 5.34634 34.5958 5.36088 34.6394C5.72424 35.3952 6.11668 36.1947 6.52365 37.0377C6.93062 37.8807 7.35213 38.7382 7.7591 39.6103C8.1806 40.4824 8.58757 41.3399 8.99455 42.1829C9.40152 43.0259 11.5236 47.4009 11.6835 47.7352L17.0904 34.683C17.1049 34.6394 17.163 34.5958 17.2066 34.5958H21.6833C21.756 34.5958 21.8141 34.654 21.8141 34.7267V34.872C21.8141 34.9447 21.756 35.0028 21.6833 35.0028C21.1019 35.0028 20.6804 35.1482 20.4043 35.4534C20.1281 35.7586 19.9828 36.2092 19.9828 36.7906V49.2323C19.9828 49.8136 20.1281 50.2642 20.4043 50.5694C20.6804 50.8747 21.1019 51.02 21.6833 51.02C21.7124 51.02 21.756 51.0346 21.7705 51.0636C21.7996 51.0927 21.8141 51.1218 21.8141 51.1508V51.2962C21.8141 51.3689 21.756 51.427 21.6833 51.427H15.3898C15.3171 51.427 15.259 51.3689 15.259 51.2962V51.1508C15.259 51.0782 15.3171 51.02 15.3898 51.02C15.9567 51.02 16.3927 50.8601 16.6689 50.5694C16.945 50.2642 17.0904 49.8136 17.0904 49.2323V35.8749L11.9451 48.273C11.9887 48.3456 12.0032 48.4038 12.0323 48.4619C12.0468 48.5201 12.0759 48.5782 12.105 48.6073L12.1776 48.7672C12.2067 48.8108 12.1922 48.8689 12.1631 48.898C11.9887 49.1305 11.8433 49.3485 11.7125 49.523C11.5817 49.6974 11.4654 49.8718 11.3637 50.0462C11.262 50.2206 11.1457 50.4096 11.0439 50.6131C10.9422 50.8165 10.8114 51.0636 10.6951 51.3398C10.6806 51.3834 10.6224 51.4125 10.5788 51.4125H10.3608C10.3172 51.4125 10.2591 51.3834 10.2445 51.3398L3.29695 36.529C3.16614 36.2819 3.00626 36.0638 2.83184 35.8604V49.2177C2.83184 49.7991 2.93359 50.2497 3.15161 50.5694C3.35509 50.8601 3.74753 51.0055 4.31438 51.0055C4.38705 51.0055 4.44519 51.0636 4.44519 51.1363V51.2817C4.44519 51.3543 4.38705 51.4125 4.31438 51.4125H2.77371C2.75917 51.427 2.7301 51.4415 2.71557 51.4415H2.57022Z" fill="white"/>
<path d="M0.927734 34.7267H2.55562L5.23 34.6976C5.59337 35.4534 5.9858 36.2528 6.39277 37.0959C6.79975 37.9389 7.22125 38.7964 7.62822 39.6685C8.04973 40.5406 8.4567 41.3981 8.86367 42.2411C9.27064 43.0841 9.66308 43.869 10.0119 44.6103C10.3607 45.337 10.695 46.0056 10.9857 46.6161C11.2764 47.212 11.509 47.6916 11.6834 48.055L17.192 34.7412H21.6687V34.8866C21.0583 34.8866 20.5932 35.0465 20.3025 35.3808C19.9972 35.7151 19.8519 36.1802 19.8519 36.8052V49.2468C19.8519 49.8573 19.9972 50.3369 20.3025 50.6712C20.6077 51.0055 21.0583 51.1654 21.6687 51.1654V51.3108H15.3752V51.1654C15.9857 51.1654 16.4508 51.0055 16.7415 50.6712C17.0467 50.3369 17.192 49.8718 17.192 49.2468V35.2354L11.7706 48.2876C11.8142 48.3602 11.8578 48.4474 11.8724 48.5056C11.9014 48.5782 11.916 48.6364 11.9596 48.68C11.9886 48.7381 12.0177 48.7963 12.0322 48.8253C11.8578 49.0579 11.7125 49.2759 11.5817 49.4503C11.4508 49.6247 11.3346 49.8137 11.2328 49.9881C11.1165 50.1625 11.0148 50.3515 10.8985 50.555C10.7822 50.7585 10.666 51.0055 10.5497 51.2817H10.3317L3.3841 36.4709C3.18061 36.1075 2.94805 35.7877 2.6719 35.5261V49.2178C2.6719 49.8282 2.78817 50.3079 3.02073 50.6422C3.25328 50.9765 3.67479 51.1364 4.28525 51.1364V51.2817H2.68643V51.3108H2.57015V51.2817H0.956806V51.1364C1.56726 51.1364 1.98877 50.9765 2.22132 50.6422C2.45388 50.3079 2.57015 49.8428 2.57015 49.2178V35.4244C2.11958 35.061 1.56726 34.8866 0.94227 34.8866V34.7267H0.927734Z" fill="white"/>
<path d="M23.1953 51.4561C23.1226 51.4561 23.0645 51.398 23.0645 51.3253V51.1799C23.0645 51.1509 23.079 51.1073 23.1081 51.0927C23.1371 51.0637 23.1662 51.0491 23.1953 51.0491C23.7621 51.0491 24.1982 50.8892 24.4743 50.5986C24.7505 50.2933 24.8958 49.8427 24.8958 49.2614V36.8197C24.8958 36.2383 24.7505 35.7877 24.4743 35.4825C24.1982 35.1773 23.7767 35.0319 23.1953 35.0319C23.1662 35.0319 23.1226 35.0174 23.1081 34.9883C23.079 34.9592 23.0645 34.9302 23.0645 34.9011V34.7558C23.0645 34.6831 23.1226 34.6249 23.1953 34.6249H33.1079C33.6748 34.6249 34.1399 34.5959 34.5032 34.5377C34.8666 34.4796 35.1864 34.3924 35.4335 34.2616C35.6806 34.1308 35.8986 33.9563 36.0875 33.7383C36.2765 33.5058 36.4654 33.2151 36.6544 32.8808C36.6834 32.8372 36.727 32.8081 36.7707 32.8081H37.0323C37.0759 32.8081 37.1195 32.8372 37.134 32.8662C37.1486 32.8953 37.1631 32.9535 37.1486 32.9825C37.0177 33.2732 36.9015 33.5348 36.7997 33.7674C36.7271 33.9709 36.6398 34.1744 36.5381 34.3779C36.4509 34.5668 36.3782 34.7122 36.3491 34.7848C36.2038 35.0901 36.0294 35.468 35.8404 35.9331C35.6369 36.3982 35.4335 36.8924 35.2154 37.4011L34.5614 38.9127C34.3434 39.4068 34.1544 39.8429 33.98 40.2353C33.9655 40.2789 33.9073 40.308 33.8637 40.308H33.6457C33.6021 40.308 33.5585 40.2789 33.544 40.2499C33.5149 40.2063 33.5149 40.1627 33.5294 40.1336C33.8201 39.4505 34.0527 38.7819 34.2125 38.1569C34.3579 37.5464 34.387 36.9941 34.2562 36.529C34.1399 36.0639 33.8492 35.715 33.3841 35.4389C32.9044 35.1627 32.1777 35.0174 31.1893 35.0174H29.4888C28.9074 35.0174 28.4859 35.1627 28.2097 35.468C27.9336 35.7732 27.7882 36.2238 27.7882 36.8051V41.8341H28.7911C29.2417 41.8341 29.6487 41.8196 29.9975 41.8051C30.3318 41.7905 30.6516 41.7324 30.9422 41.6307C31.2184 41.5289 31.4946 41.3545 31.7417 41.1365C31.9887 40.9039 32.2504 40.5696 32.512 40.1191C32.5411 40.0755 32.5847 40.0609 32.6283 40.0609H32.8172C32.8608 40.0609 32.9044 40.09 32.919 40.1191C32.948 40.1627 32.948 40.2063 32.9335 40.2353L30.1864 46.4126C30.1719 46.4562 30.1138 46.4852 30.0702 46.4852H29.9103C29.8667 46.4852 29.8231 46.4707 29.8085 46.4271C29.7795 46.398 29.7795 46.3399 29.794 46.3108C30.012 45.773 30.1574 45.2498 30.23 44.7556C30.3027 44.276 30.2882 43.8399 30.1574 43.462C30.0411 43.0987 29.8085 42.808 29.4597 42.59C29.1109 42.3719 28.6167 42.2556 27.9772 42.2556H27.7737V49.2468C27.7737 49.8282 27.919 50.2788 28.1952 50.584C28.4714 50.8893 28.8929 51.0346 29.4742 51.0346H30.3318C31.3783 51.0346 32.2794 50.8166 33.0352 50.3951C33.791 49.959 34.4596 49.4212 35.0265 48.7963C35.5933 48.1567 36.0875 47.4736 36.48 46.7323C36.8724 46.0056 37.2358 45.3225 37.5265 44.7265C37.5555 44.6829 37.5991 44.6539 37.6427 44.6539H37.9044C37.948 44.6539 37.9916 44.6684 38.0061 44.712C38.0352 44.7411 38.0352 44.7992 38.0206 44.8283C37.5119 46.0492 37.0613 47.1248 36.6689 48.0986C36.4945 48.491 36.3346 48.8835 36.1747 49.2759C36.0148 49.6683 35.8695 50.0172 35.7387 50.3369C35.6079 50.6422 35.4625 50.991 35.3027 51.3689C35.2881 51.4125 35.23 51.4416 35.1864 51.4416H23.1953V51.4561Z" fill="white"/>
<path d="M23.1953 51.1945C23.8058 51.1945 24.2709 51.0346 24.5616 50.7003C24.8668 50.366 25.0121 49.9009 25.0121 49.2759V36.8342C25.0121 36.2238 24.8668 35.7441 24.5616 35.4098C24.2563 35.0755 23.8058 34.9157 23.1953 34.9157V34.7703H33.108C33.6748 34.7703 34.1545 34.7412 34.5324 34.6831C34.9103 34.625 35.23 34.5378 35.5062 34.3924C35.7678 34.2616 36.0004 34.0727 36.2038 33.8401C36.4073 33.6075 36.5963 33.3168 36.7852 32.968H37.0469C36.916 33.2587 36.7998 33.5058 36.698 33.7529C36.6254 33.9564 36.5381 34.1599 36.4364 34.3633C36.3347 34.5668 36.2765 34.6976 36.2475 34.7703C36.1021 35.0755 35.9422 35.4534 35.7387 35.9186C35.5353 36.3837 35.3318 36.8778 35.1137 37.3866C34.8957 37.8953 34.6777 38.404 34.4597 38.8982C34.2417 39.3923 34.0527 39.8284 33.8783 40.2063H33.6457C33.951 39.5086 34.169 38.84 34.3289 38.2005C34.4888 37.561 34.5033 36.9941 34.3725 36.5145C34.2417 36.0203 33.9364 35.6424 33.4423 35.3372C32.9481 35.0319 32.1923 34.9011 31.1894 34.9011H29.4888C28.8784 34.9011 28.4133 35.061 28.1226 35.3953C27.8173 35.7296 27.672 36.1947 27.672 36.8197V41.9795H28.8057C29.2563 41.9795 29.6632 41.965 30.0266 41.9504C30.3754 41.9359 30.7097 41.8778 31.015 41.7615C31.3202 41.6452 31.5964 41.4708 31.858 41.2382C32.1196 41.0057 32.3812 40.6569 32.6574 40.1918H32.8463L30.0993 46.369H29.9394C30.1574 45.8167 30.3028 45.2934 30.39 44.7847C30.4627 44.276 30.4481 43.8254 30.3173 43.433C30.1865 43.0405 29.9394 42.7208 29.576 42.4882C29.1981 42.2557 28.6894 42.1394 28.0208 42.1394H27.6865V49.2614C27.6865 49.8718 27.8319 50.3515 28.1371 50.6858C28.4423 51.0201 28.8929 51.18 29.5034 51.18H30.3609C31.4365 51.18 32.3522 50.962 33.1225 50.5114C33.8928 50.0753 34.576 49.523 35.1428 48.8835C35.7242 48.244 36.2038 47.5463 36.6108 46.805C37.0178 46.0638 37.3666 45.3952 37.6573 44.7992H37.9189C37.4102 46.0202 36.9597 47.0957 36.5672 48.0695C36.3928 48.462 36.2329 48.8544 36.073 49.2469C35.9132 49.6393 35.7678 49.9881 35.637 50.2934C35.5062 50.5986 35.3608 50.9474 35.201 51.3253H23.2098V51.1945H23.1953Z" fill="white"/>
<path d="M41.0585 51.4415C41.0294 51.4415 41.0004 51.427 40.9858 51.4125H39.4452C39.3725 51.4125 39.3143 51.3543 39.3143 51.2817V51.1363C39.3143 51.0636 39.3725 51.0055 39.4452 51.0055C40.012 51.0055 40.4044 50.8601 40.6079 50.5694C40.8259 50.2642 40.9277 49.8136 40.9277 49.2177V35.497C40.5062 35.1772 39.9975 35.0173 39.4306 35.0173C39.3579 35.0173 39.2998 34.9592 39.2998 34.8865V34.7267C39.2998 34.654 39.3579 34.5958 39.4306 34.5958H41.0585L43.7329 34.5668C43.7765 34.5668 43.8346 34.5958 43.8492 34.6394C44.2125 35.3952 44.605 36.1947 45.0119 37.0377C45.4189 37.8807 45.8404 38.7382 46.2474 39.6103C46.6689 40.4824 47.0759 41.3399 47.4828 42.1829C47.8898 43.0259 50.0119 47.4009 50.1717 47.7352L55.5786 34.683C55.5932 34.6394 55.6513 34.5958 55.6949 34.5958H60.1716C60.2443 34.5958 60.3024 34.654 60.3024 34.7267V34.872C60.3024 34.9447 60.2443 35.0028 60.1716 35.0028C59.5902 35.0028 59.1687 35.1482 58.8926 35.4534C58.6164 35.7586 58.471 36.2092 58.471 36.7906V49.2323C58.471 49.8136 58.6164 50.2642 58.8926 50.5694C59.1687 50.8747 59.5902 51.02 60.1716 51.02C60.2007 51.02 60.2443 51.0346 60.2588 51.0636C60.2879 51.0927 60.3024 51.1218 60.3024 51.1508V51.2962C60.3024 51.3689 60.2443 51.427 60.1716 51.427H53.8781C53.8054 51.427 53.7473 51.3689 53.7473 51.2962V51.1508C53.7473 51.0782 53.8054 51.02 53.8781 51.02C54.4449 51.02 54.881 50.8601 55.1571 50.5694C55.4333 50.2642 55.5786 49.8136 55.5786 49.2323V35.8749L50.4334 48.273C50.477 48.3456 50.4915 48.4038 50.5206 48.4619C50.5351 48.5201 50.5642 48.5782 50.5932 48.6073L50.6659 48.7672C50.695 48.8108 50.6805 48.8689 50.6514 48.898C50.477 49.1305 50.3316 49.3485 50.2008 49.523C50.07 49.6974 49.9537 49.8718 49.852 50.0462C49.7502 50.2206 49.634 50.4096 49.5322 50.6131C49.4305 50.8165 49.2997 51.0636 49.1834 51.3398C49.1689 51.3834 49.1107 51.4125 49.0671 51.4125H48.8491C48.8055 51.4125 48.7473 51.3834 48.7328 51.3398L41.7852 36.529C41.6544 36.2819 41.4945 36.0638 41.3201 35.8604V49.2177C41.3201 49.7991 41.4219 50.2497 41.6399 50.5694C41.8434 50.8601 42.2358 51.0055 42.8027 51.0055C42.8753 51.0055 42.9335 51.0636 42.9335 51.1363V51.2817C42.9335 51.3543 42.8753 51.4125 42.8027 51.4125H41.262C41.2475 51.427 41.2184 51.4415 41.2038 51.4415H41.0585Z" fill="white"/>
<path d="M39.416 34.7267H41.0584L43.7328 34.6976C44.0962 35.4534 44.4886 36.2528 44.8956 37.0959C45.3026 37.9389 45.7241 38.7964 46.131 39.6685C46.5525 40.5406 46.9595 41.3981 47.3665 42.2411C47.7735 43.0841 48.1659 43.869 48.5147 44.6103C48.8636 45.337 49.1979 46.0056 49.4885 46.6161C49.7792 47.212 50.0118 47.6916 50.1862 48.055L55.6949 34.7412H60.1715V34.8866C59.5611 34.8866 59.096 35.0465 58.8053 35.3808C58.5 35.7151 58.3547 36.1802 58.3547 36.8052V49.2468C58.3547 49.8573 58.5 50.3369 58.8053 50.6712C59.1105 51.0055 59.5611 51.1654 60.1715 51.1654V51.3108H53.878V51.1654C54.4885 51.1654 54.9536 51.0055 55.2443 50.6712C55.5495 50.3369 55.6949 49.8718 55.6949 49.2468V35.2354L50.2734 48.2876C50.317 48.3602 50.3606 48.4474 50.3752 48.5056C50.4042 48.5782 50.4188 48.6364 50.4624 48.68C50.4914 48.7381 50.5205 48.7963 50.535 48.8253C50.3606 49.0579 50.2153 49.2759 50.0845 49.4503C49.9537 49.6247 49.8374 49.8137 49.7356 49.9881C49.6194 50.1625 49.5176 50.3515 49.4013 50.555C49.2851 50.7585 49.1688 51.0055 49.0525 51.2817H48.8345L41.8869 36.4709C41.6834 36.1075 41.4509 35.7877 41.1747 35.5261V49.2178C41.1747 49.8282 41.291 50.3079 41.5235 50.6422C41.7561 50.9765 42.1776 51.1364 42.7881 51.1364V51.2817H41.1747V51.3108H41.0584V51.2817H39.4451V51.1364C40.0555 51.1364 40.477 50.9765 40.7096 50.6422C40.9422 50.3079 41.0584 49.8428 41.0584 49.2178V35.4244C40.6079 35.061 40.0555 34.8866 39.4305 34.8866V34.7267H39.416Z" fill="white"/>
<path d="M80.5927 51.4125C80.5201 51.4125 80.4619 51.3543 80.4619 51.2816V51.1363C80.4619 51.0636 80.5201 51.0055 80.5927 51.0055C80.7671 51.0055 80.9561 50.9619 81.145 50.8892C81.3485 50.802 81.5229 50.6857 81.6974 50.5404C81.8718 50.395 82.0026 50.2061 82.1189 49.9735C82.2351 49.741 82.2787 49.4939 82.2787 49.2177V36.776C82.2787 36.122 82.1334 35.6569 81.8282 35.3952C81.5229 35.1336 81.1014 34.9883 80.5927 34.9883C80.5201 34.9883 80.4619 34.9301 80.4619 34.8575V34.7121C80.4619 34.6394 80.5201 34.5813 80.5927 34.5813H86.5374C88.049 34.5813 89.3281 34.7121 90.3164 34.9737C91.3193 35.2354 92.1187 35.6278 92.7001 36.1074C93.2815 36.6016 93.703 37.2121 93.9356 37.9097C94.1681 38.6074 94.2844 39.3923 94.2844 40.2644C94.2844 41.0347 94.1681 41.7614 93.9501 42.43C93.7175 43.0986 93.3687 43.68 92.9036 44.1742C92.4385 44.6538 91.828 45.0463 91.1013 45.3224C90.3746 45.5986 89.488 45.7439 88.4851 45.7439C87.4386 45.7439 86.6246 45.4968 86.0723 45.0027C85.7089 44.6829 85.4182 44.305 85.2148 43.8835V49.2032C85.2148 49.7846 85.3601 50.2351 85.6363 50.5404C85.9124 50.8456 86.3339 50.991 86.9153 50.991C86.9444 50.991 86.988 51.0055 87.0025 51.0346C87.0316 51.0636 87.0461 51.0927 87.0461 51.1218V51.2671C87.0461 51.3398 86.988 51.3979 86.9153 51.3979H80.5927V51.4125ZM85.1857 41.5434C85.1857 42.2847 85.2874 42.8951 85.4764 43.3748C85.6653 43.8544 85.9124 44.2323 86.2177 44.523C86.5229 44.8137 86.8572 45.0027 87.2351 45.1189C87.6275 45.2352 88.0345 45.2934 88.4415 45.2934C89.4298 45.2934 90.1275 44.8864 90.5926 44.0579C91.0577 43.2149 91.3048 41.8922 91.3048 40.119C91.3048 39.3051 91.2176 38.5638 91.0577 37.9388C90.8978 37.3284 90.6217 36.7906 90.2583 36.3545C89.8949 35.9185 89.4007 35.5987 88.8048 35.3807C88.1944 35.1627 87.4386 35.0464 86.5374 35.0464H85.2002V41.5434H85.1857Z" fill="white"/>
<path d="M80.5928 34.872V34.7267H86.5375C88.0491 34.7267 89.299 34.8575 90.2874 35.1191C91.2758 35.3807 92.0461 35.7441 92.613 36.2238C93.1798 36.7034 93.5722 37.2848 93.8048 37.9679C94.0374 38.651 94.1536 39.4214 94.1536 40.2789C94.1536 41.0347 94.0374 41.7469 93.8193 42.401C93.6013 43.0551 93.2525 43.6219 92.8019 44.087C92.3513 44.5667 91.7554 44.93 91.0432 45.2062C90.331 45.4824 89.4735 45.6132 88.4706 45.6132C87.4386 45.6132 86.6683 45.3806 86.145 44.901C85.6218 44.4213 85.2584 43.8545 85.0695 43.2004V49.2032C85.0695 49.8137 85.2148 50.2933 85.52 50.6276C85.8253 50.9619 86.2758 51.1218 86.8863 51.1218V51.2671H80.5928V51.1218C80.7817 51.1218 80.9852 51.0782 81.2032 50.991C81.4213 50.9038 81.6102 50.7875 81.7991 50.6276C81.9736 50.4677 82.1335 50.2643 82.2497 50.0172C82.366 49.7701 82.4241 49.4939 82.4241 49.2032V36.7615C82.4241 36.0639 82.2643 35.5697 81.93 35.279C81.5811 35.0174 81.1451 34.872 80.5928 34.872ZM85.0549 34.9156V41.5435C85.0549 42.2993 85.1567 42.9242 85.3456 43.4184C85.5491 43.9126 85.7962 44.3196 86.116 44.6103C86.4357 44.9155 86.7845 45.119 87.1915 45.2353C87.5985 45.3515 88.0055 45.4097 88.427 45.4097C89.4589 45.4097 90.2002 44.9736 90.6798 44.1016C91.1595 43.2295 91.4066 41.9068 91.4066 40.1045C91.4066 39.276 91.3194 38.5348 91.1595 37.8952C90.9996 37.2557 90.7234 36.7179 90.331 36.2674C89.9386 35.8168 89.4444 35.4825 88.8194 35.2499C88.1944 35.0174 87.4241 34.9011 86.5084 34.9011H85.0549V34.9156Z" fill="white"/>
<path d="M107.656 51.4125C107.583 51.4125 107.525 51.3543 107.525 51.2816V51.1363C107.525 51.0636 107.583 51.0055 107.656 51.0055C108.223 51.0055 108.659 50.8456 108.935 50.5549C109.211 50.2497 109.357 49.7991 109.357 49.2177V38.2295L97.6852 51.3689C97.6561 51.3979 97.6271 51.4125 97.5835 51.4125H97.4817C97.409 51.4125 97.3509 51.3543 97.3509 51.2816V36.776C97.3509 36.1947 97.2056 35.7441 96.9294 35.4388C96.6532 35.1336 96.2317 34.9883 95.6503 34.9883C95.6213 34.9883 95.5777 34.9737 95.5631 34.9447C95.5341 34.9156 95.5195 34.8865 95.5195 34.8575V34.7121C95.5195 34.6394 95.5777 34.5813 95.6503 34.5813H101.944C102.017 34.5813 102.075 34.6394 102.075 34.7121V34.8575C102.075 34.9301 102.017 34.9883 101.944 34.9883C101.362 34.9883 100.941 35.1336 100.665 35.4388C100.389 35.7441 100.243 36.1947 100.243 36.776V47.7643L111.871 34.6249C111.9 34.5958 111.929 34.5813 111.973 34.5813H112.118C112.191 34.5813 112.249 34.6394 112.249 34.7121V49.2177C112.249 49.7991 112.394 50.2497 112.67 50.5549C112.947 50.8601 113.368 51.0055 113.95 51.0055C113.979 51.0055 114.022 51.02 114.037 51.0491C114.066 51.0782 114.08 51.1072 114.08 51.1363V51.2816C114.08 51.3543 114.022 51.4125 113.95 51.4125H107.656Z" fill="white"/>
<path d="M95.6503 34.7267H101.944V34.872C101.333 34.872 100.868 35.0319 100.578 35.3662C100.272 35.7005 100.127 36.1656 100.127 36.7906V48.1277L111.973 34.7412H112.118V49.2468C112.118 49.8573 112.263 50.3369 112.569 50.6712C112.874 51.0055 113.324 51.1654 113.935 51.1654V51.3108H107.641V51.1654C108.252 51.1654 108.717 51.0055 109.008 50.6712C109.313 50.3369 109.458 49.8718 109.458 49.2468V37.9098L97.5543 51.2962H97.4526V36.7906C97.4526 36.1802 97.3072 35.7005 97.002 35.3662C96.6968 35.0319 96.2462 34.872 95.6357 34.872V34.7267H95.6503Z" fill="white"/>
<path d="M125.955 51.4124C125.882 51.4124 125.824 51.3543 125.824 51.2816V51.1363C125.824 51.0636 125.882 51.0055 125.955 51.0055C126.522 51.0055 126.914 50.8456 127.132 50.5404C127.35 50.2351 127.365 49.7991 127.176 49.2322L126.304 46.5579C126.158 46.1945 125.94 45.9329 125.664 45.7585C125.374 45.584 125.083 45.4968 124.778 45.4968H120.475C120.228 45.4968 119.967 45.555 119.72 45.6858C119.472 45.8021 119.254 45.991 119.095 46.2381L117.874 49.9154C117.859 50.2206 117.917 50.4677 118.092 50.6566C118.31 50.8892 118.688 51.0055 119.24 51.0055C119.313 51.0055 119.371 51.0636 119.371 51.1363V51.2816C119.371 51.3543 119.313 51.4124 119.24 51.4124H115.461C115.388 51.4124 115.33 51.3543 115.33 51.2816V51.1363C115.33 51.0636 115.388 51.0055 115.461 51.0055C116.013 51.0055 116.449 50.8747 116.769 50.613C117.089 50.3514 117.35 49.959 117.554 49.4648L122.19 35.5987C121.958 35.3952 121.667 35.2353 121.347 35.1481C120.984 35.0464 120.563 35.0028 120.068 35.0028C119.996 35.0028 119.938 34.9447 119.938 34.872V34.7266C119.938 34.654 119.996 34.5958 120.068 34.5958H124.85C124.908 34.5958 124.952 34.6249 124.967 34.683L129.981 49.1886C130.228 49.8863 130.519 50.366 130.868 50.6276C131.216 50.8892 131.682 51.02 132.263 51.02C132.336 51.02 132.394 51.0781 132.394 51.1508V51.2962C132.394 51.3688 132.336 51.427 132.263 51.427H125.955V51.4124ZM119.69 44.4939C119.69 44.6684 119.763 44.8282 119.894 44.93C120.039 45.0463 120.228 45.1044 120.461 45.1044H124.763C125.068 45.1044 125.286 45.0172 125.432 44.8282C125.548 44.6684 125.577 44.4503 125.519 44.1742L123.484 37.8807C123.179 37.0522 122.859 36.4127 122.525 35.9912L119.69 44.4939Z" fill="white"/>
<path d="M115.461 51.1363C116.042 51.1363 116.507 50.991 116.842 50.7148C117.176 50.4241 117.452 50.0317 117.656 49.5085L122.321 35.5552C122.06 35.3081 121.74 35.1191 121.362 35.0174C120.984 34.9156 120.548 34.8575 120.054 34.8575V34.7122H124.836L129.85 49.2178C130.097 49.9445 130.417 50.4387 130.78 50.7148C131.144 50.991 131.638 51.1218 132.263 51.1218V51.2672H125.969V51.1218C126.58 51.1218 127.016 50.9474 127.263 50.5986C127.51 50.2497 127.525 49.7846 127.321 49.1742L126.449 46.4998C126.289 46.1073 126.057 45.8166 125.751 45.6277C125.446 45.4387 125.126 45.337 124.792 45.337H120.49C120.228 45.337 119.952 45.4097 119.676 45.5405C119.4 45.6713 119.182 45.8748 119.007 46.151L117.772 49.8718C117.714 50.7148 118.208 51.1218 119.269 51.1218V51.2672H115.49V51.1363H115.461ZM119.574 44.4504C119.574 44.6975 119.661 44.901 119.821 45.0318C119.981 45.1626 120.199 45.2353 120.475 45.2353H124.778C125.126 45.2353 125.388 45.119 125.548 44.901C125.708 44.6829 125.737 44.3632 125.606 43.9562L125.722 44.3632L123.615 37.8371C123.252 36.8633 122.874 36.1511 122.481 35.7296L119.574 44.4504Z" fill="white"/>
<path d="M144.268 51.4124C144.196 51.4124 144.138 51.3543 144.138 51.2816V51.1363C144.138 51.0636 144.196 51.0055 144.268 51.0055C144.835 51.0055 145.228 50.8456 145.446 50.5404C145.664 50.2351 145.678 49.7991 145.489 49.2322L141.798 37.8516C141.492 37.0231 141.158 36.3836 140.838 35.9621L136.187 49.9154C136.173 50.2206 136.231 50.4677 136.405 50.6566C136.623 50.8892 137.001 51.0055 137.553 51.0055C137.626 51.0055 137.684 51.0636 137.684 51.1363V51.2816C137.684 51.3543 137.626 51.4124 137.553 51.4124H133.774C133.702 51.4124 133.644 51.3543 133.644 51.2816V51.1363C133.644 51.0636 133.702 51.0055 133.774 51.0055C134.327 51.0055 134.763 50.8747 135.082 50.613C135.402 50.3514 135.664 49.959 135.867 49.4648L140.504 35.5987C140.271 35.3952 139.981 35.2353 139.661 35.1481C139.298 35.0464 138.876 35.0028 138.382 35.0028C138.309 35.0028 138.251 34.9447 138.251 34.872V34.7266C138.251 34.654 138.309 34.5958 138.382 34.5958H143.164C143.222 34.5958 143.266 34.6249 143.28 34.683L148.295 49.1886C148.542 49.8863 148.832 50.366 149.181 50.6276C149.53 50.8892 149.995 51.02 150.576 51.02C150.649 51.02 150.707 51.0781 150.707 51.1508V51.2962C150.707 51.3688 150.649 51.427 150.576 51.427H144.268V51.4124Z" fill="white"/>
<path d="M135.969 49.5085L140.635 35.5552C140.373 35.3081 140.054 35.1191 139.676 35.0174C139.298 34.9156 138.862 34.8575 138.368 34.8575V34.7122H143.15L148.164 49.2178C148.411 49.9445 148.731 50.4387 149.094 50.7148C149.458 50.991 149.952 51.1218 150.577 51.1218V51.2672H144.283V51.1218C144.894 51.1218 145.33 50.9474 145.577 50.5986C145.824 50.2497 145.838 49.7846 145.635 49.1742L141.943 37.7935C141.58 36.8197 141.202 36.1075 140.809 35.686L136.086 49.8573C136.028 50.7003 136.522 51.1073 137.583 51.1073V51.2526H133.804V51.1073C134.385 51.1073 134.85 50.9619 135.185 50.6858C135.49 50.4387 135.766 50.0317 135.969 49.5085Z" fill="white"/>
<path d="M70.2581 17.9681C70.2581 17.9681 62.5547 25.7587 62.5547 35.3661C62.5547 44.9736 70.2581 52.7642 70.2581 52.7642C70.2581 52.7642 77.9614 44.9736 77.9614 35.3661C77.9614 25.7587 70.2581 17.9681 70.2581 17.9681ZM64.8366 35.3661C64.8366 27.8227 70.2871 21.689 70.2871 21.689C70.2871 21.689 75.7376 27.8081 75.7376 35.3661C75.7376 42.9096 70.2871 49.0433 70.2871 49.0433C70.2871 49.0433 64.8366 42.9096 64.8366 35.3661Z" fill="white"/>
<path d="M66.2171 14.5961C66.2171 14.5379 66.2026 14.4943 66.2026 14.4507C66.2026 12.2124 68.0194 10.3956 70.2577 10.3956C72.4961 10.3956 74.3129 12.2124 74.3129 14.4507C74.3129 14.5089 74.3129 14.5525 74.2984 14.5961H76.7402C76.7402 14.5379 76.7547 14.4943 76.7547 14.4507C76.7547 10.8607 73.8478 7.95374 70.2577 7.95374C66.6677 7.95374 63.7607 10.8607 63.7607 14.4507C63.7607 14.5089 63.7607 14.5525 63.7753 14.5961H66.2171Z" fill="white"/>
</svg>
