<svg width="30" height="30" viewBox="0 0 30 30" fill="none" xmlns="http://www.w3.org/2000/svg">
<path d="M10.0048 11.7727C9.51663 11.2845 9.51664 10.4931 10.0048 10.0049C10.4929 9.51678 11.2844 9.51678 11.7726 10.0049L15.0071 13.2395L18.2383 10.0082C18.7266 9.52007 19.518 9.52007 20.0061 10.0082C20.4943 10.4964 20.4943 11.2878 20.0061 11.776L16.7748 15.0073L20.0048 18.2371C20.493 18.7254 20.493 19.5168 20.0048 20.0049C19.5166 20.4931 18.7252 20.4931 18.237 20.0049L15.0071 16.775L11.7762 20.006C11.288 20.4941 10.4966 20.4941 10.0084 20.006C9.52026 19.5178 9.52026 18.7264 10.0084 18.2381L13.2393 15.0073L10.0048 11.7727Z" fill="#0F0F0F"/>
<path fill-rule="evenodd" clip-rule="evenodd" d="M28.75 15C28.75 22.5939 22.5939 28.75 15 28.75C7.40609 28.75 1.25 22.5939 1.25 15C1.25 7.40609 7.40609 1.25 15 1.25C22.5939 1.25 28.75 7.40609 28.75 15ZM3.75854 15C3.75854 21.2085 8.79151 26.2415 15 26.2415C21.2085 26.2415 26.2415 21.2085 26.2415 15C26.2415 8.79151 21.2085 3.75854 15 3.75854C8.79151 3.75854 3.75854 8.79151 3.75854 15Z" fill="#0F0F0F"/>
</svg>
