<svg width="100" height="100" viewBox="0 0 100 100" fill="none" xmlns="http://www.w3.org/2000/svg">
<g clip-path="url(#clip0_104_1403)">
<mask id="mask0_104_1403" style="mask-type:luminance" maskUnits="userSpaceOnUse" x="0" y="0" width="100" height="100">
<path d="M100 0H0V100H100V0Z" fill="white"/>
</mask>
<g mask="url(#mask0_104_1403)">
<path d="M95.0002 83C85.0529 77.725 77.4229 74.7672 70.6306 73.6332L71.3335 72.6668C71.6669 72.3334 71.8335 71.8334 71.6669 71.3334L70.105 65.0859C70.671 64.2857 71.205 63.4584 71.7052 62.6078C77.9162 60.4939 81.057 56.9207 81.5848 51.6598C84.3129 51.5176 86.6668 49.0826 86.6668 46.3334V33.8334C86.6668 31.0967 84.4897 28.6715 81.6375 28.5092C81.2705 18.8811 77.0252 0 50.0001 0C44.0421 0 38.3796 1.18086 33.5665 3.54082C30.1548 1.30176 26.0683 0 21.6666 0C9.66662 0 0 9.6666 0 21.6666C0 30.7105 5.49122 38.4281 13.3334 41.682V46.3332C13.3334 49.1666 15.8334 51.6666 18.8334 51.6666H21.3334C22.2502 51.6666 23.1312 51.4037 23.9049 50.9535C24.8503 55.9691 26.936 60.9022 29.8954 65.0857L28.3335 71.3332C28.3335 71.6666 28.3335 72.1666 28.6669 72.6666L29.3698 73.633C22.5775 74.7672 14.9475 77.7248 5.00021 82.9998C1.8334 84.5 0 87.6666 0 91.1666V98.3332C0 99.3334 0.666603 100 1.6666 100H41.6667H42.3333H57.6667H58.3333H98.3334C99.3334 100 100 99.3334 100 98.3334V91.1668C100 87.8334 98.0002 84.6666 95.0002 83ZM50.0093 79.1877L54.0001 88.3334H45.9444L50.0093 79.1877ZM44.7335 91.6666H55.2603L56.2358 96.6666H43.7333L44.7335 91.6666ZM67.5001 68.3334L68.1667 71.3334L66.4642 73.6711C66.3556 73.76 66.255 73.8676 66.1667 74L59.2341 83.599L57.0345 86.6193L52.5413 76.5098C58.0214 75.8414 62.9015 73.0484 66.8142 69.0465C67.0454 68.8133 67.2743 68.5764 67.5001 68.3334ZM74.0082 57.9656C74.9482 55.6783 75.6568 53.3008 76.1049 50.9043C76.7395 51.2887 77.4619 51.5455 78.2408 51.6326C77.952 53.9885 76.9053 56.2127 74.0082 57.9656ZM83.1668 33.6666V46.1666C83.1668 47.1666 82.3334 48.1666 81.1668 48.1666H78.6668C77.6668 48.1666 76.6668 47.3332 76.6668 46.1666V45V33.6666C76.6668 32.6666 77.5002 31.6666 78.6668 31.6666H81.1668C82.1668 31.6666 83.1668 32.5 83.1668 33.6666ZM50.0001 3.3334C60.273 3.3334 77.5623 6.68691 78.3057 28.5271C77.6072 28.5988 76.9383 28.8111 76.3332 29.1373C74.3051 16.4457 63.2397 6.6666 50.0001 6.6666C46.3419 6.6666 42.6837 7.43809 39.2511 8.97969C38.4188 7.82617 37.4759 6.75879 36.4372 5.79238C40.4638 4.15527 45.1138 3.3334 50.0001 3.3334ZM3.33341 21.6666C3.33341 11.5 11.5 3.3332 21.6668 3.3332C28.1028 3.3332 33.7362 6.60664 37.0048 11.5877C37.0491 11.741 37.1077 11.8812 37.1669 11.9998C38.8743 14.6387 39.8579 17.7113 39.9851 20.9482C39.9866 20.9867 39.9882 21.0254 39.9894 21.0639C39.996 21.2643 40.0001 21.4648 40.0001 21.6664C40.0001 21.9309 39.9935 22.1939 39.9823 22.4557C39.9814 22.4807 39.9806 22.5057 39.9796 22.5307C39.9673 22.7949 39.9495 23.0576 39.9263 23.3188C39.9255 23.3287 39.9245 23.3385 39.9237 23.3484C39.1718 31.5875 32.9438 38.2609 24.667 39.6664C24.5399 39.6982 24.4127 39.7484 24.2902 39.8143C23.4338 39.9357 22.5582 39.9998 21.667 39.9998C11.5 40 3.33341 31.8334 3.33341 21.6666ZM23.1666 46.1666C23.1666 47.1666 22.3332 48.1666 21.1666 48.1666H18.6666C17.6666 48.1666 16.6666 47.3332 16.6666 46.1666V42.7568C17.1854 42.8785 17.7115 42.9816 18.2441 43.0656C19.885 43.3941 21.5258 43.4596 23.1666 43.3334V46.1666ZM26.6667 42.7568C35.6314 40.6531 42.4177 33.0104 43.2464 23.6092C43.2493 23.5758 43.2524 23.5424 43.2552 23.509C43.2786 23.2291 43.297 22.9477 43.3097 22.6648C43.3116 22.6211 43.313 22.5773 43.3146 22.5336C43.3257 22.2459 43.3331 21.9572 43.3331 21.6666C43.3331 21.4604 43.3296 21.2549 43.3239 21.05C43.3224 20.9955 43.3196 20.9412 43.3177 20.8869C43.3122 20.7318 43.3056 20.5771 43.297 20.4229C43.294 20.3701 43.2903 20.3178 43.287 20.265C43.2767 20.1006 43.2644 19.9365 43.2503 19.7732C43.2472 19.7381 43.2442 19.7027 43.2409 19.6676C43.0462 17.523 42.5419 15.4709 41.772 13.5553L41.7714 13.5539C41.7089 13.3984 41.6448 13.2439 41.5788 13.0902C41.5345 12.9861 41.489 12.8826 41.4433 12.7793C41.4319 12.7539 41.4206 12.7285 41.4091 12.7031C41.278 12.4105 41.1429 12.1199 40.9995 11.8334C43.8335 10.6666 46.8335 10 50.0001 10C62.8335 10 73.3335 20.5 73.3335 33.3334V45C73.3335 50.5141 71.8979 55.5623 69.5706 59.8217C65.5925 60.9756 59.8696 61.6666 51.6669 61.6666C50.6669 61.6666 50.0003 62.3332 50.0003 63.3332C50.0003 64.3332 50.6669 64.9998 51.6669 64.9998C57.6718 64.9998 62.6939 64.6311 66.8065 63.8602C66.7044 63.9623 66.6022 64.0645 66.5001 64.1666C65.6616 65.2846 64.7767 66.3039 63.8521 67.223C59.9276 70.8791 55.247 73.0938 50.7364 73.3131C50.5095 73.2156 50.255 73.1666 50.0001 73.1666C49.7439 73.1666 49.513 73.2168 49.306 73.3152C46.545 73.1887 43.7194 72.3135 41.0411 70.8166C38.3276 69.2576 35.7751 67.0102 33.5001 64.1666C33.3335 64 33.1667 63.8332 33.0001 63.6666L32.9028 63.6342C29.1599 58.7252 26.6667 52.2672 26.6667 45V42.7568ZM47.4587 76.5098L42.9655 86.6193L40.7659 83.599L33.8333 74C33.7802 73.9469 33.7216 73.8943 33.6606 73.8426L31.8333 71.3334L32.4999 68.3334C32.7255 68.5764 32.9544 68.8131 33.1853 69.0461C37.0981 73.048 41.9786 75.8412 47.4587 76.5098ZM3.33341 91.1666C3.33341 89 4.50001 87 6.50001 86C17.1236 80.3562 24.7711 77.5236 31.5837 76.6775L41.5294 90.3529L40.2667 96.6666H3.33341V91.1666ZM96.6668 96.6666H59.7335L58.4708 90.3529L68.5243 76.5293C75.3129 77.5537 83.0977 80.3842 93.5004 85.8332C95.5004 86.9998 96.667 88.9998 96.667 91.1666L96.6668 96.6666Z" fill="#353535"/>
<path d="M23.3333 25H29.9999V28.3334C29.9999 29.3334 30.6665 30 31.6665 30C32.6665 30 33.3331 29.3334 33.3331 28.3334V25H34.9997C35.9997 25 36.6663 24.3334 36.6663 23.3334C36.6663 22.3334 35.9997 21.6668 34.9997 21.6668H33.3331V13.3334C33.3331 12.6668 32.8331 12 32.1665 11.6668C31.4999 11.5002 30.8331 11.6668 30.3331 12.1668L21.9997 22.1668C21.6663 22.6668 21.4997 23.3334 21.8331 24.0002C22.1665 24.667 22.6665 25 23.3333 25ZM29.9999 18V21.6666H26.8333L29.9999 18Z" fill="#353535"/>
<path d="M19.9996 26.8334H13.1662L18.9996 21.8334C20.6662 20.1668 21.1662 17.5 20.333 15.3334C19.333 13 17.4996 11.6666 14.9996 11.6666C11.333 11.6666 8.33301 14.6666 8.33301 18.3332C8.33301 19.3332 8.99962 19.9998 9.99962 19.9998C10.9996 19.9998 11.6662 19.3332 11.6662 18.3332C11.6662 16.4998 13.1662 14.9998 14.9996 14.9998C16.4996 14.9998 16.9996 16.1664 17.1662 16.6664C17.4996 17.333 17.4996 18.4998 16.6662 19.333L9.16622 25.833C8.33282 26.4996 8.16622 27.4996 8.49962 28.4996C8.99962 29.333 9.83301 29.9996 10.833 29.9996H19.9996C20.9996 29.9996 21.6662 29.4996 21.6662 28.4996C21.6662 27.5 20.9996 26.8334 19.9996 26.8334Z" fill="#353535"/>
</g>
<path d="M17.8952 47.8457C16.9467 47.415 16.7441 46.8554 16.7441 44.6665C16.7441 43.6774 16.7616 42.8683 16.7829 42.8684C16.8042 42.8685 17.3449 42.9724 17.9844 43.0993C18.624 43.2261 20.0368 43.3764 21.124 43.4331L23.1007 43.5363V45.0005C23.1007 46.8184 22.8736 47.3765 21.9521 47.8226C21.0619 48.2535 18.8212 48.2663 17.8952 47.8457Z" fill="#2F524E" stroke="#353535" stroke-width="0.155039"/>
<path d="M77.8952 47.8457C76.738 47.3201 76.7441 47.3627 76.7441 39.8966C76.7441 32.5536 76.7408 32.5777 77.839 31.9887C78.6134 31.5734 81.1718 31.5851 82.0003 32.0078C83.103 32.5703 83.1007 32.5542 83.1007 39.9225C83.1007 47.3478 83.1134 47.2604 81.9521 47.8226C81.0619 48.2535 78.8212 48.2663 77.8952 47.8457Z" fill="#2F524E" stroke="#353535" stroke-width="0.155039"/>
<path d="M59.7873 96.3954C59.7439 96.2461 59.4527 94.8294 59.1403 93.247L58.5723 90.37L63.5693 83.5036L68.5663 76.6373L69.2834 76.7405C70.6176 76.9327 73.4009 77.5992 75.5043 78.2301C79.8224 79.5255 84.1939 81.3193 90.0005 84.1783C94.4001 86.3446 95.0851 86.8628 95.9976 88.7151L96.5121 89.7596L96.5637 93.2132L96.6154 96.6667H78.2409C60.8748 96.6667 59.862 96.6518 59.7873 96.3954Z" fill="#2F524E" stroke="#353535" stroke-width="0.155039"/>
<path d="M54.9322 81.6654C53.8077 79.1286 52.848 76.9486 52.7994 76.8211C52.7291 76.6365 53.0009 76.5329 54.1311 76.3137C56.1375 75.9246 57.6251 75.4028 59.7674 74.3369C62.0218 73.2153 64.0471 71.7871 65.9878 69.9504C66.9059 69.0815 67.4654 68.6523 67.5084 68.7839C67.5458 68.8985 67.6886 69.5075 67.8258 70.1372L68.0752 71.2821L67.6793 71.8426C67.4615 72.1509 67.0447 72.717 66.7531 73.1008C66.4615 73.4845 64.1887 76.6066 61.7025 80.0387C59.2162 83.4709 57.1359 86.2788 57.0794 86.2785C57.0229 86.2782 56.0567 84.2023 54.9322 81.6654Z" fill="#2F524E" stroke="#353535" stroke-width="0.155039"/>
<path d="M38.8201 80.7364C36.6187 77.688 34.2168 74.3915 33.4826 73.4108C32.7484 72.4302 32.0988 71.5446 32.039 71.4427C31.9486 71.2889 32.2478 69.5308 32.4914 68.7839C32.5344 68.6523 33.0939 69.0815 34.012 69.9504C37.5165 73.267 41.6924 75.5004 45.9311 76.325C47.0089 76.5347 47.2706 76.637 47.2004 76.8211C46.7885 77.9025 43.0003 86.278 42.9229 86.2785C42.8678 86.2788 41.0215 83.7849 38.8201 80.7364Z" fill="#2F524E" stroke="#353535" stroke-width="0.155039"/>
<path d="M3.43642 93.2132L3.48807 89.7596L3.99669 88.7271C4.76363 87.1702 5.53477 86.5779 9.25179 84.6906C15.37 81.584 20.4053 79.4842 24.7294 78.2361C26.9191 77.6041 30.494 76.8217 31.192 76.8217C31.5119 76.8217 32.3296 77.8656 36.4989 83.5964L41.4277 90.3711L40.8598 93.2476C40.5474 94.8296 40.2563 96.2461 40.2128 96.3954C40.1382 96.6518 39.1254 96.6667 21.7593 96.6667H3.38477L3.43642 93.2132Z" fill="#2F524E" stroke="#353535" stroke-width="0.155039"/>
</g>
<defs>
<clipPath id="clip0_104_1403">
<rect width="100" height="100" fill="white"/>
</clipPath>
</defs>
</svg>
