<svg width="20" height="20" viewBox="0 0 20 20" fill="none" xmlns="http://www.w3.org/2000/svg">
<path d="M5.75208 14.3746C-0.433922 8.18759 -0.137922 3.50859 2.69208 1.38659L3.31908 0.919589C3.47905 0.801886 3.66104 0.717515 3.85424 0.671484C4.04745 0.625452 4.24793 0.618698 4.44379 0.651622C4.63965 0.684545 4.82691 0.756476 4.99444 0.863145C5.16198 0.969815 5.30638 1.10905 5.41908 1.27259L6.99808 3.54459C7.20937 3.84866 7.30073 4.22013 7.25457 4.58752C7.20842 4.9549 7.02802 5.29223 6.74808 5.53459L5.22808 6.84859C4.84808 7.17759 4.66208 7.67659 4.83308 8.14959C5.14908 9.02959 5.91608 10.5826 7.73008 12.3956C9.54408 14.2096 11.0961 14.9766 11.9761 15.2936C12.4501 15.4636 12.9491 15.2786 13.2781 14.8976L14.5921 13.3796C14.8344 13.0997 15.1718 12.9192 15.5392 12.8731C15.9065 12.8269 16.278 12.9183 16.5821 13.1296L18.8581 14.7096C19.0215 14.8219 19.1606 14.966 19.2672 15.1331C19.3739 15.3003 19.4458 15.4871 19.4789 15.6826C19.5119 15.8781 19.5053 16.0783 19.4594 16.2712C19.4136 16.4641 19.3295 16.6458 19.2121 16.8056L18.7421 17.4386C16.6211 20.2666 11.9401 20.5616 5.75208 14.3746Z" fill="white"/>
</svg>
