<svg width="150" height="150" viewBox="0 0 150 150" fill="none" xmlns="http://www.w3.org/2000/svg">
<path d="M88.6879 57.1313H86.3438V59.4754H88.6879V57.1313Z" fill="#2F524E"/>
<path d="M88.6879 69.6562H86.3438V72.0004H88.6879V69.6562Z" fill="#2F524E"/>
<path d="M76.1625 69.6562H73.8184V72.0004H76.1625V69.6562Z" fill="#2F524E"/>
<path d="M76.1625 57.1313H73.8184V59.4754H76.1625V57.1313Z" fill="#2F524E"/>
<path d="M63.6381 57.1313H61.2939V59.4754H63.6381V57.1313Z" fill="#2F524E"/>
<path d="M63.6381 69.6562H61.2939V72.0004H63.6381V69.6562Z" fill="#2F524E"/>
<path d="M63.6381 82.1812H61.2939V84.5254H63.6381V82.1812Z" fill="#2F524E"/>
<path d="M92.6244 67.6875V73.95C92.6244 75.0375 91.7432 75.9 90.6744 75.9H84.4119C83.3244 75.9 82.4619 75.0187 82.4619 73.95V67.6875C82.4619 66.6 83.3432 65.7375 84.4119 65.7375H90.6744C91.7432 65.7375 92.6244 66.6187 92.6244 67.6875ZM88.7057 72V69.6562H86.3619V72H88.7057Z" fill="black"/>
<path d="M92.6244 55.1625V61.425C92.6244 62.5125 91.7432 63.375 90.6744 63.375H84.4119C83.3244 63.375 82.4619 62.4938 82.4619 61.425V55.1625C82.4619 54.075 83.3432 53.2125 84.4119 53.2125H90.6744C91.7432 53.2125 92.6244 54.0938 92.6244 55.1625ZM88.7057 59.475V57.1313H86.3619V59.475H88.7057Z" fill="black"/>
<path d="M80.0814 67.6875V73.95C80.0814 75.0375 79.2002 75.9 78.1314 75.9H71.8689C70.7814 75.9 69.9189 75.0187 69.9189 73.95V67.6875C69.9189 66.6 70.8002 65.7375 71.8689 65.7375H78.1314C79.2189 65.7375 80.0814 66.6187 80.0814 67.6875ZM76.1814 72V69.6562H73.8377V72H76.1814Z" fill="black"/>
<path d="M80.0814 55.1625V61.425C80.0814 62.5125 79.2002 63.375 78.1314 63.375H71.8689C70.7814 63.375 69.9189 62.4938 69.9189 61.425V55.1625C69.9189 54.075 70.8002 53.2125 71.8689 53.2125H78.1314C79.2189 53.2125 80.0814 54.0938 80.0814 55.1625ZM76.1814 59.475V57.1313H73.8377V59.475H76.1814Z" fill="black"/>
<path d="M67.5561 80.2125V86.475C67.5561 87.5625 66.6748 88.425 65.6061 88.425H59.3436C58.2561 88.425 57.3936 87.5437 57.3936 86.475V80.2125C57.3936 79.125 58.2748 78.2625 59.3436 78.2625H65.6061C66.6936 78.2625 67.5561 79.1437 67.5561 80.2125ZM63.6561 84.525V82.1812H61.3123V84.525H63.6561Z" fill="black"/>
<path d="M67.5561 67.6875V73.95C67.5561 75.0375 66.6748 75.9 65.6061 75.9H59.3436C58.2561 75.9 57.3936 75.0187 57.3936 73.95V67.6875C57.3936 66.6 58.2748 65.7375 59.3436 65.7375H65.6061C66.6936 65.7375 67.5561 66.6187 67.5561 67.6875ZM63.6561 72V69.6562H61.3123V72H63.6561Z" fill="black"/>
<path d="M67.5561 55.1625V61.425C67.5561 62.5125 66.6748 63.375 65.6061 63.375H59.3436C58.2561 63.375 57.3936 62.4938 57.3936 61.425V55.1625C57.3936 54.075 58.2748 53.2125 59.3436 53.2125H65.6061C66.6936 53.2125 67.5561 54.0938 67.5561 55.1625ZM63.6561 59.475V57.1313H61.3123V59.475H63.6561Z" fill="black"/>
<path d="M76.1635 82.1812H73.8193V84.5254H76.1635V82.1812Z" fill="#2F524E"/>
<path d="M80.0814 80.2125V86.475C80.0814 87.5625 79.2002 88.425 78.1314 88.425H71.8689C70.7814 88.425 69.9189 87.5437 69.9189 86.475V80.2125C69.9189 79.125 70.8002 78.2625 71.8689 78.2625H78.1314C79.2189 78.2625 80.0814 79.1437 80.0814 80.2125ZM76.1814 84.525V82.1812H73.8377V84.525H76.1814Z" fill="black"/>
<path d="M88.6869 82.1812H86.3428V84.5254H88.6869V82.1812Z" fill="#2F524E"/>
<path d="M92.6244 80.2125V86.475C92.6244 87.5625 91.7432 88.425 90.6744 88.425H84.4119C83.3244 88.425 82.4619 87.5437 82.4619 86.475V80.2125C82.4619 79.125 83.3432 78.2625 84.4119 78.2625H90.6744C91.7432 78.2625 92.6244 79.1437 92.6244 80.2125ZM88.7057 84.525V82.1812H86.3619V84.525H88.7057Z" fill="black"/>
<path d="M63.6381 94.7062H61.2939V97.0504H63.6381V94.7062Z" fill="#2F524E"/>
<path d="M67.5561 92.7375V99C67.5561 100.088 66.6748 100.95 65.6061 100.95H59.3436C58.2561 100.95 57.3936 100.069 57.3936 99V92.7375C57.3936 91.65 58.2748 90.7875 59.3436 90.7875H65.6061C66.6936 90.7875 67.5561 91.6688 67.5561 92.7375ZM63.6561 97.05V94.7063H61.3123V97.05H63.6561Z" fill="black"/>
<path d="M76.1635 94.7062H73.8193V97.0504H76.1635V94.7062Z" fill="#2F524E"/>
<path d="M80.0814 92.7375V99C80.0814 100.088 79.2002 100.95 78.1314 100.95H71.8689C70.7814 100.95 69.9189 100.069 69.9189 99V92.7375C69.9189 91.65 70.8002 90.7875 71.8689 90.7875H78.1314C79.2189 90.7875 80.0814 91.6688 80.0814 92.7375ZM76.1814 97.05V94.7063H73.8377V97.05H76.1814Z" fill="black"/>
<path d="M88.6869 94.7062H86.3428V97.0504H88.6869V94.7062Z" fill="#2F524E"/>
<path d="M92.6244 92.7375V99C92.6244 100.088 91.7432 100.95 90.6744 100.95H84.4119C83.3244 100.95 82.4619 100.069 82.4619 99V92.7375C82.4619 91.65 83.3432 90.7875 84.4119 90.7875H90.6744C91.7432 90.7875 92.6244 91.6688 92.6244 92.7375ZM88.7057 97.05V94.7063H86.3619V97.05H88.7057Z" fill="black"/>
<path d="M64.9494 34.1625L66.4869 44.85H58.4619L59.9994 34.1625H64.9494Z" fill="#2F524E"/>
<path d="M90.0002 34.1625L91.5377 44.85H83.5127L85.0502 34.1625H90.0002Z" fill="#2F524E"/>
<path d="M41.175 40.425L40.0687 44.85H18.075L16.9688 40.425H41.175Z" fill="#2F524E"/>
<path d="M133.031 40.425L131.925 44.85H109.931L108.825 40.425H133.031Z" fill="#2F524E"/>
<path d="M137.494 34.2937V38.475C137.494 38.55 137.494 38.625 137.475 38.7C137.475 38.7187 137.475 38.7375 137.475 38.7562C137.475 38.8125 137.456 38.8687 137.437 38.925C137.437 38.9437 137.437 38.9437 137.437 38.9437L135.356 47.2875C135.131 48.15 134.362 48.7688 133.462 48.7688H108.412C107.512 48.7688 106.725 48.1687 106.519 47.2875L104.794 40.425H94.856L95.4935 44.8687H100.05C100.95 44.8687 101.737 45.4875 101.962 46.3687L116.569 106.913C116.569 106.913 116.569 106.931 116.569 106.95C116.569 106.988 116.587 107.025 116.587 107.063C116.587 107.1 116.587 107.119 116.606 107.156C116.606 107.194 116.606 107.213 116.606 107.25C116.606 107.288 116.606 107.325 116.606 107.363V107.381V132.431C116.606 133.519 115.725 134.381 114.656 134.381H35.3248C34.2373 134.381 33.3748 133.5 33.3748 132.431V107.363V107.344C33.3748 107.306 33.3748 107.269 33.3748 107.231C33.3748 107.194 33.3748 107.175 33.3748 107.138C33.3748 107.1 33.3936 107.081 33.3936 107.044C33.3936 107.006 33.4123 106.969 33.4123 106.931C33.4123 106.912 33.4123 106.913 33.4123 106.894L34.3498 102.994C29.1186 102.506 25.0123 98.1 25.0123 92.7375V90.2813C21.4123 89.4 18.7498 86.1563 18.7498 82.2938V48.7688H16.5373C15.6373 48.7688 14.8498 48.15 14.6436 47.2875L12.5623 38.9437V38.925C12.5436 38.8687 12.5436 38.8125 12.5248 38.7562C12.5248 38.7375 12.5248 38.7187 12.5061 38.7C12.5061 38.625 12.4873 38.55 12.4873 38.475V34.2937C12.4873 24 20.8498 15.6375 31.1436 15.6375H91.6873C92.7748 15.6375 98.0998 16.5187 98.0998 17.5875C98.0998 18.675 92.756 19.5375 91.6873 19.5375H31.1623C23.0248 19.5375 16.4248 26.1562 16.4248 34.275V36.4875H55.7248L56.3811 31.9125C56.5123 30.9562 57.3373 30.225 58.3123 30.225H66.656C67.631 30.225 68.4561 30.9375 68.5873 31.9125L69.2435 36.4875H80.7561L81.4123 31.9125C81.5435 30.9562 82.3685 30.225 83.3435 30.225H91.6873C92.6623 30.225 93.4873 30.9375 93.6185 31.9125L94.2748 36.4875H133.575V34.275C133.575 26.1375 126.956 19.5375 118.837 19.5375H91.6873C90.5998 19.5375 98.0998 18.6562 98.0998 17.5875C98.0998 16.5 90.6185 15.6375 91.6873 15.6375H118.837C129.131 15.6375 137.494 24 137.494 34.2937ZM131.925 44.85L133.031 40.4063H108.825L109.931 44.85H131.925ZM112.706 130.463V109.313H45.6748C44.5873 109.313 52.0873 108.431 52.0873 107.363C52.0873 106.275 44.6061 105.413 45.6748 105.413H112.181L98.5123 48.7875H51.4873L37.8186 105.413H45.6748C46.7623 105.413 52.0873 106.294 52.0873 107.363C52.0873 108.45 46.7435 109.313 45.6748 109.313H37.2748V130.444H112.706V130.463ZM91.5373 44.85L89.9998 34.1437H85.0498L83.531 44.85H91.5373ZM79.5748 44.85L80.2123 40.4063H69.806L70.4436 44.85H79.5748ZM66.4873 44.85L64.9685 34.1437H59.9998L58.4623 44.85H66.4873ZM54.5061 44.85L55.1436 40.4063H45.2061L43.4811 47.2688C43.2561 48.1313 42.4873 48.75 41.5873 48.75H22.6686V56.4937C23.9248 55.725 25.3873 55.275 26.9811 55.275C31.5186 55.275 35.1936 58.9688 35.1936 63.4875C35.1936 68.025 31.4998 71.7 26.9811 71.7C25.4061 71.7 23.9248 71.25 22.6686 70.4813V75.2813C23.9248 74.5125 25.3873 74.0625 26.9811 74.0625C31.5186 74.0625 35.1936 77.7563 35.1936 82.275C35.1936 86.1375 32.5311 89.3813 28.9311 90.2625V92.7188C28.9311 96.2438 31.7811 99.0938 35.2873 99.1125L48.0186 46.3313C48.2248 45.45 49.0123 44.8313 49.931 44.8313H54.5061V44.85ZM40.0686 44.85L41.1748 40.4063H16.9686L18.0748 44.85H40.0686ZM31.2936 63.525C31.2936 61.1437 29.3623 59.2125 26.9811 59.2125C24.5998 59.2125 22.6686 61.1437 22.6686 63.525C22.6686 65.9062 24.5998 67.8375 26.9811 67.8375C29.3623 67.8375 31.2936 65.8875 31.2936 63.525ZM31.2936 82.3125C31.2936 79.9313 29.3623 78 26.9811 78C24.5998 78 22.6686 79.9313 22.6686 82.3125C22.6686 84.6938 24.5998 86.625 26.9811 86.625C29.3623 86.625 31.2936 84.675 31.2936 82.3125Z" fill="black"/>
<path d="M98.0816 115.575H51.9004V124.181H98.0816V115.575Z" fill="#2F524E"/>
<path d="M102 113.625V126.15C102 127.237 101.119 128.1 100.05 128.1H49.95C48.8625 128.1 48 127.219 48 126.15V113.625C48 112.537 48.8812 111.675 49.95 111.675H100.05C101.137 111.656 102 112.537 102 113.625ZM98.1 124.181V115.575H51.9V124.181H98.1Z" fill="black"/>
<path d="M58.2939 117.938H56.2127C55.1252 117.938 54.2627 118.819 54.2627 119.888C54.2627 120.975 55.1439 121.837 56.2127 121.837H58.2939C59.3814 121.837 60.2439 120.956 60.2439 119.888C60.2627 118.8 59.3814 117.938 58.2939 117.938Z" fill="black"/>
<path d="M66.6562 117.938H64.575C63.4875 117.938 62.625 118.819 62.625 119.888C62.625 120.975 63.5062 121.837 64.575 121.837H66.6562C67.7438 121.837 68.6062 120.956 68.6062 119.888C68.6062 118.8 67.725 117.938 66.6562 117.938Z" fill="black"/>
<path d="M76.0498 117.938H73.9686C72.8811 117.938 72.0186 118.819 72.0186 119.888C72.0186 120.975 72.8998 121.837 73.9686 121.837H76.0498C77.1373 121.837 77.9998 120.956 77.9998 119.888C77.9998 118.8 77.1186 117.938 76.0498 117.938Z" fill="black"/>
<path d="M85.4434 117.938H83.3621C82.2746 117.938 81.4121 118.819 81.4121 119.888C81.4121 120.975 82.2934 121.837 83.3621 121.837H85.4434C86.5309 121.837 87.3934 120.956 87.3934 119.888C87.3934 118.8 86.5121 117.938 85.4434 117.938Z" fill="black"/>
<path d="M93.7871 117.938H91.7059C90.6184 117.938 89.7559 118.819 89.7559 119.888C89.7559 120.975 90.6371 121.837 91.7059 121.837H93.7871C94.8746 121.837 95.7371 120.956 95.7371 119.888C95.7371 118.8 94.8746 117.938 93.7871 117.938Z" fill="black"/>
</svg>
