<svg width="25" height="25" viewBox="0 0 25 25" fill="none" xmlns="http://www.w3.org/2000/svg">
<path d="M10.25 12.375L14.4167 16.5417M14.4167 12.375L10.25 16.5417M4 6.125H20.6667M16.5 6.125L16.2181 5.27924C15.9449 4.45964 15.8082 4.04983 15.5549 3.74685C15.3311 3.4793 15.0439 3.27221 14.7193 3.14456C14.3517 3 13.9198 3 13.0558 3H11.6108C10.7469 3 10.315 3 9.94741 3.14456C9.62283 3.27221 9.3355 3.4793 9.11176 3.74685C8.85839 4.04983 8.72179 4.45964 8.44858 5.27924L8.16667 6.125M18.5833 6.125V16.75C18.5833 18.5002 18.5833 19.3752 18.2427 20.0437C17.9431 20.6318 17.4651 21.1098 16.8771 21.4094C16.2085 21.75 15.3335 21.75 13.5833 21.75H11.0833C9.33317 21.75 8.45808 21.75 7.78961 21.4094C7.2016 21.1098 6.72354 20.6318 6.42394 20.0437C6.08333 19.3752 6.08333 18.5002 6.08333 16.75V6.125" stroke="black" stroke-width="2" stroke-linecap="round" stroke-linejoin="round"/>
</svg>
