<svg width="24" height="24" viewBox="0 0 24 24" fill="none" xmlns="http://www.w3.org/2000/svg">
<path d="M0.972064 0.972272C1.50904 0.435296 2.37604 0.431708 2.90857 0.964237L22.1933 20.249C22.7259 20.7815 22.7222 21.6485 22.1853 22.1855C21.6483 22.7225 20.7813 22.7261 20.2488 22.1935L0.964029 2.90878C0.4315 2.37625 0.435088 1.50925 0.972064 0.972272Z" fill="white" stroke="white"/>
<path d="M22.1859 0.972308C22.7229 1.50928 22.7265 2.37629 22.194 2.90882L2.90924 22.1935C2.37669 22.7261 1.5097 22.7225 0.972728 22.1855C0.435752 21.6485 0.432145 20.7816 0.964693 20.249L20.2494 0.964273C20.782 0.431744 21.649 0.435332 22.1859 0.972308Z" fill="white" stroke="white"/>
</svg>
